<svg xmlns="http://www.w3.org/2000/svg" width="256" height="256"><path fill="#1976D2" fill-opacity=".016" fill-rule="evenodd" d="M0 128.004v128.004l128.25-.254 128.25-.254.254-127.75L257.008 0H0zm.485.496c0 70.4.119 99.053.265 63.672s.146-92.98 0-128S.485 58.1.485 128.5"/><path fill="#1976D2" fill-opacity=".215" fill-rule="evenodd" d="M0 128.011v100.997l128.25-.254 128.25-.254.255-101 .255-101-128.505.258L0 27.015zM.481 128c0 55.825.121 78.662.269 50.75.147-27.913.147-73.588 0-101.5C.602 49.337.481 72.175.481 128M29 119v25l16.75.001H62.5l-.347-5-.346-5.001H41V94H29zm54.316-23.674c-6.044 2.228-11.931 7.251-14.415 12.297-3.579 7.27-3.405 17.17.416 23.669 3.266 5.557 9.244 10.241 15.087 11.822 2.253.609 7.311.903 11.24.654 12.339-.784 20.886-7.839 23.466-19.37 2.837-12.676-4.236-24.831-17.009-29.228-4.281-1.473-14.598-1.388-18.785.156M128 119v25h10v-14.941c0-8.218.363-15.165.806-15.439s5.951 6.449 12.239 14.941L162.477 144H173V94h-10.949l-.276 15.75-.275 15.75-11.829-15.75L137.842 94H128zm69.463-23.409c-12.633 4.486-19.243 18.268-15.247 31.793 1.751 5.926 9.923 13.847 16.047 15.555 6.82 1.902 17.13.943 24.081-2.239l5.656-2.589v-19.216l-5.25.303-5.25.302-.105 5.907c-.13 7.313-1.546 8.593-9.509 8.593-4.725 0-6.28-.46-8.845-2.619-4.177-3.514-6.042-7.401-6.037-12.581.01-12.02 12.672-18.536 24.155-12.43l4.456 2.369 3.151-3.752c3.041-3.623 3.086-3.811 1.304-5.423-5.55-5.023-19.999-7.029-28.607-3.973M85.605 105.922c-6.639 4.376-8.979 13.714-5.232 20.872 4.821 9.211 19.281 9.742 24.667.907 2.375-3.894 2.625-12.514.484-16.654-3.353-6.485-13.785-9.169-19.919-5.125m-29.511 58.663c1.504 5.752 1.986 6.445 1.33 1.915-.319-2.2-.979-4.412-1.467-4.915s-.426.847.137 3M64.259 163c-.552 1.375-1.259 4.075-1.57 6l-.565 3.5 1.114-3.75c.613-2.062 1.413-3.75 1.779-3.75s1.262 2.496 1.994 5.547 1.754 5.808 2.272 6.128c1.236.764 2.718-1.648 2.566-4.175-.105-1.725-.181-1.691-.555.25-.454 2.361-2.284 3.154-2.308 1-.007-.687-.848-3.95-1.868-7.25-1.735-5.615-1.919-5.839-2.859-3.5M79 169c0 4.4.338 8 .75 8 .412.001.646-3.35.52-7.446l-.23-7.446 4.73-.374 4.73-.374-5.25-.18L79 161zm14 0c0 4.4.338 8 .75 8.001s.75-1.687.75-3.75c0-3.581.162-3.765 3.586-4.052 2.277-.19 4.04.248 4.832 1.202 1.589 1.915.47 5.574-1.735 5.678-1.094.051-1.233.26-.399.594 1.705.685 4.216-1.483 4.216-3.64 0-2.567-3.049-4.834-7-5.205-2.979-.279-3.5-.7-3.5-2.828 0-1.997.565-2.565 2.81-2.822 3.242-.372 6.026 1.503 5.247 3.534-.294.766-.089 1.117.454.781 2.977-1.839-1.069-5.493-6.082-5.493H93zm23.2-6.8c-.66.66-1.2 2.198-1.2 3.417 0 1.719.953 2.533 4.25 3.628 4.924 1.635 6.258 4.878 2.774 6.742-1.62.867-2.777.784-5.078-.364-1.639-.818-2.703-1.039-2.366-.493.979 1.584 5.016 2.788 7.324 2.185 2.476-.648 3.881-4.927 2.179-6.638-.644-.647-2.614-1.667-4.377-2.266-2.42-.822-3.206-1.68-3.206-3.5 0-2.136.424-2.398 3.724-2.299 2.048.061 3.483-.276 3.191-.75-.791-1.28-5.834-1.043-7.215.338m14.05-.484c2.706.41 2.753.539 2.93 8.1l.18 7.684.57-7.459c.526-6.889.761-7.512 3.07-8.151 1.617-.447.38-.673-3.5-.64-3.3.027-4.762.237-3.25.466m13.93 6.011c-.165 6.619.021 7.359 2.214 8.796 3.107 2.035 7.432 1.017 8.171-1.925.301-1.2.382-4.863.18-8.14l-.367-5.958-.189 7.282c-.17 6.551-.415 7.367-2.439 8.12-4.723 1.759-6.2.023-6.82-8.012l-.57-7.39zM161 169v8h4.943c5.849 0 8.057-2.233 8.057-8.15 0-4.768-3.586-7.85-9.135-7.85H161zm18.355.5c-.003 4.95.166 7.101.376 4.78.209-2.321.212-6.371.005-9-.206-2.629-.378-.73-.381 4.22M188 163c-1.38 1.38-1.995 3.318-1.985 6.25.019 5.109.682 6.304 4.255 7.663 7.438 2.827 12.889-6.627 7.657-13.278-2.535-3.224-7.049-3.513-9.927-.635m-115.444 2.556c-.377 2.006-.485 3.848-.241 4.093.245.244.753-1.198 1.129-3.205.377-2.006.485-3.848.241-4.093-.245-.244-.753 1.198-1.129 3.205m90.194-2.977c-.412.415-.75 3.604-.75 7.088V176h3.845c2.455 0 4.443-.661 5.5-1.829 1.959-2.164 2.167-7.089.402-9.503-1.348-1.842-7.762-3.332-8.997-2.089m25.905 1.25c-1.952 2.156-2.184 8.116-.405 10.379 2.377 3.024 5.504 3.129 8.352.281 2.211-2.211 2.54-3.228 2.04-6.309-.951-5.86-6.452-8.257-9.987-4.351M50 166c-.901.582-1.025.975-.309.985.655.008 1.469-.435 1.809-.985.767-1.242.421-1.242-1.5 0m154-.511c0 .255 1.688 1.34 3.75 2.411l3.75 1.948-3.75 1.59c-2.062.874-3.75 1.814-3.75 2.089 0 .613 7.207-2.339 8.25-3.38.413-.411-1.274-1.732-3.75-2.934s-4.5-1.979-4.5-1.724m-159.901 3.429c-1.061.671-.402 1.397 2.71 2.985 2.261 1.153 4.467 2.077 4.901 2.053s-.913-.943-2.994-2.041c-2.081-1.099-3.517-2.429-3.191-2.956.73-1.18.388-1.19-1.426-.041m14.037 3.398c-.075.998.381 2.782 1.013 3.963l1.149 2.147.873-2.358c.479-1.297.637-2.593.35-2.88-.286-.287-.521.004-.521.645 0 2.098-1.85 1.224-2.294-1.083-.313-1.623-.472-1.744-.57-.434"/><path fill="#1976D2" fill-opacity=".716" fill-rule="evenodd" d="m127.25 27.754 127.75.254.003 63.746c.002 35.06.298 71.509.657 80.996l.655 17.25h-10.989l-.662-42.75c-.364-23.513-.662-57.487-.663-75.5L244 39H10.878l.718 75.5.717 75.5H1.014L.75 120.25.486 50.5.243 134 0 217.5l128.592-.258 128.593-.257-.301-95.243-.301-95.242-128.542.5L-.5 27.5zM.478 134.5c0 46.2.122 64.954.272 41.675.149-23.279.149-61.079 0-84C.6 69.254.478 88.3.478 134.5m86.866-40.469c-9.291 1.862-18.226 9.287-20.342 16.904-2.606 9.377-.691 17.97 5.551 24.912 5.544 6.167 11.415 8.651 20.447 8.651 8.938 0 14.912-2.494 20.283-8.468 14.449-16.07 4.769-39.769-17.283-42.313-2.475-.286-6.37-.144-8.656.314m114.923.002c-8.853 1.792-15.548 6.734-19.527 14.414-2.566 4.952-2.832 15.288-.531 20.626 6.35 14.728 24.585 19.831 41.499 11.614l4.292-2.086V119h-11v6.402c0 6.282-.059 6.423-3.149 7.5-10.526 3.669-20.236-2.974-20.236-13.844 0-5.768 2.554-10.223 7.431-12.964 4.931-2.771 9.547-2.643 15.535.432l4.919 2.527 3.25-3.693c1.787-2.031 3.25-4.032 3.25-4.445s-1.463-1.634-3.25-2.712c-6.405-3.864-15.584-5.566-22.483-4.17M29 119v25h34v-10H42V94H29zm98 0v25h11.948l.276-15.096.276-15.097 11.233 15.097L161.966 144l5.767.001h5.767l-.283-25L172.933 94H162v15c0 8.25-.338 14.988-.75 14.972-.412-.015-5.7-6.758-11.75-14.984l-11-14.957-5.75-.015L127 94zm-39.98-13.248c-14.117 7.092-8.348 29.292 7.263 27.947 13.526-1.165 17.45-19.659 5.819-27.429-4.069-2.718-8.365-2.889-13.082-.518m-31.697 56.647c.295.769 1.064 4.079 1.708 7.355 2.023 10.283 3.793 10.815 5.958 1.793.732-3.051 1.62-5.547 1.973-5.547.354 0 1.317 2.588 2.141 5.75 1.904 7.312 3.943 7.592 5.455.75 2.147-9.723 2.383-11.5 1.526-11.5-.477 0-1.448 2.925-2.159 6.5s-1.587 6.5-1.949 6.5c-.361 0-1.241-2.438-1.956-5.417-2.378-9.913-3.738-9.889-5.974.103-1.436 6.415-2.259 6.012-3.959-1.936-.677-3.162-1.696-5.75-2.266-5.75-.569 0-.793.629-.498 1.399M79 169.5v8.5h5c2.75 0 5-.45 5-1s-1.8-1-4-1c-3.778 0-4-.167-4-3 0-2.762.278-3 3.5-3 1.925 0 3.5-.45 3.5-1s-1.575-1-3.5-1c-3.067 0-3.5-.31-3.5-2.5 0-2.182.437-2.5 3.441-2.5 1.893 0 3.719-.45 4.059-1 .381-.616-1.323-1-4.441-1H79zm14-.055V178h4.066c2.236 0 4.936-.466 6-1.035 2.246-1.202 2.572-5.29.571-7.159-1.031-.964-1.094-1.703-.257-3.043 1.873-2.998-.414-5.219-5.732-5.568L93 160.89zm22.2-7.245c-2.731 2.731.453 7.8 4.9 7.8 2.259 0 4.07 2.393 3.31 4.373-.73 1.903-5.443 2.194-7.193.444-.651-.651-1.528-.839-1.949-.419-1.181 1.182 2.784 3.602 5.9 3.602 1.848 0 3.323-.819 4.38-2.433 2.189-3.34.647-5.892-4.489-7.431-2.887-.865-4.059-1.763-4.059-3.109 0-2.347 3.257-3.495 5.902-2.08 1.134.607 2.213.676 2.532.16 1.301-2.105-7.2-2.941-9.234-.907m12.8-.2c0 .55 1.125 1 2.5 1 2.444 0 2.5.167 2.5 7.5 0 4.333.422 7.5 1 7.5s1-3.167 1-7.5c0-6.757.192-7.5 1.941-7.5 1.068 0 2.219-.45 2.559-1 .386-.625-1.656-1-5.441-1-3.373 0-6.059.443-6.059 1m15 5.277c0 7.872 1.728 10.723 6.5 10.723s6.5-2.851 6.5-10.723c0-3.518-.44-6.277-1-6.277-.561 0-1 2.767-1 6.3 0 6.682-1.044 8.7-4.5 8.7s-4.5-2.018-4.5-8.7c0-3.533-.439-6.3-1-6.3s-1 2.759-1 6.277m18 2.223v8.5h3.865c5.898 0 9.135-3.038 9.135-8.573 0-5.979-2.469-8.427-8.5-8.427H161zm18 0c0 5 .412 8.5 1 8.5s1-3.5 1-8.5-.412-8.5-1-8.5-1 3.5-1 8.5m8.073-5.865c-4.464 5.674-.949 14.365 5.809 14.365 6.185 0 9.73-10.388 5.118-15-2.978-2.978-8.33-2.667-10.927.635M95 165.563c0 2.29.347 2.53 3.25 2.25 2.491-.24 3.325-.838 3.57-2.563.28-1.973-.121-2.25-3.25-2.25-3.165 0-3.57.291-3.57 2.563m68 3.937c0 6.311.075 6.5 2.566 6.5 4.737 0 6.434-1.671 6.434-6.335 0-5.126-1.316-6.665-5.7-6.665H163zm25.035-4.566c-2.639 4.931.126 11.066 4.987 11.066 3.241 0 4.978-2.268 4.978-6.5 0-4.482-1.708-6.5-5.5-6.5-2.367 0-3.75.599-4.465 1.934M46.75 167.068c-4.466 2.358-4.686 3.397-1 4.732a158 158 0 0 1 4.5 1.705c1.04.421 1.75.26 1.75-.398 0-.609-.589-1.107-1.309-1.107s-2.168-.628-3.217-1.396c-1.803-1.318-1.702-1.482 1.808-2.949 2.045-.854 3.718-1.801 3.718-2.104 0-1.06-2.532-.446-6.25 1.517M203 165.476c0 .262 1.679 1.338 3.731 2.39l3.731 1.914-3.885 1.623c-2.136.893-3.612 1.896-3.278 2.229.735.735 9.692-2.832 9.697-3.862.002-.401-1.778-1.638-3.956-2.75-3.842-1.96-6.04-2.522-6.04-1.544M95 173c0 2.995.151 3.108 3.75 2.81 3.251-.269 3.75-.643 3.75-2.81s-.499-2.541-3.75-2.81c-3.599-.298-3.75-.185-3.75 2.81m32.446 55.754c70.371.139 128.286-.086 128.7-.5.415-.415-57.161-.529-127.946-.254l-128.7.5z"/><path fill="#1976D2" fill-opacity=".964" fill-rule="evenodd" d="M255.453 63.5c0 20.35.133 28.533.296 18.185s.162-26.999-.001-37-.296-1.535-.295 18.815M11.756 114.75 11.5 190.5l-5.23.302-5.231.301-.29-21.801c-.214-16.091-.35-12.699-.52 12.952L0 217.008l128.25-.254 128.25-.254.027-35c.015-19.25-.106-25.219-.269-13.264l-.297 21.736-2.342.588c-1.288.323-3.867.442-5.731.264l-3.388-.324-.606-74c-.333-40.7-.67-74.788-.75-75.75-.136-1.656-6.365-1.75-115.638-1.75H12.013zm16.713-20.529c-.278.724-.385 12.333-.237 25.798L28.5 144.5l16.462.276c9.053.151 16.928.097 17.5-.122.606-.232.896-2.738.695-6.026L62.815 133H42.042l-.271-19.75L41.5 93.5l-6.263-.298c-4.479-.213-6.407.077-6.768 1.019m54.863.63c-7.018 2.426-11.384 5.975-14.487 11.779-3.434 6.424-4.205 11.318-2.827 17.956 1.403 6.758 5.879 12.837 12.438 16.893 4.548 2.811 5.553 3.021 14.466 3.021 8.631 0 10.037-.27 14.223-2.73 9.06-5.326 13.115-12.425 13.136-22.997.023-11.829-6.802-20.771-18.507-24.247-6.666-1.98-12.045-1.885-18.442.325m43.9-1.041c-.98.642-1.207 6.493-1 25.76l.268 24.93h12.627l-.009-14.75c-.005-8.112.173-14.75.395-14.75s5.436 6.771 11.587 15.046l11.183 15.045 5.608-.295 5.609-.296v-51h-12l-.5 14.684-.5 14.685-11.027-14.685L138.446 93.5l-4.973-.26c-2.735-.143-5.544.114-6.241.57m73.268.128c-8.695 2.126-17.114 9.493-19.339 16.92-2.932 9.785-.603 19.505 6.308 26.326 6.034 5.956 9.759 7.316 20.031 7.315 7.682 0 9.842-.395 14.75-2.694l5.75-2.694V118h-11v13.102l-3.702 1.547c-9.434 3.942-19.286-3.08-19.294-13.751-.004-5.208 2.983-10.573 7.026-12.619 4.136-2.092 11.945-1.555 16.67 1.147l4.2 2.401 3.716-4.534 3.716-4.534-2.416-1.878c-5.639-4.383-18.707-6.828-26.416-4.943M85.719 106.777c-1.53.947-3.721 3.662-4.869 6.033-6.465 13.353 8.19 26.706 20.046 18.264 2.955-2.104 6.104-8.438 6.104-12.279 0-3.609-3.778-10.233-6.883-12.067-3.727-2.201-10.806-2.178-14.398.049M.45 182.5c.001 19.25.135 26.983.299 17.185.164-9.797.163-25.547-.001-35S.45 163.25.45 182.5m115.8-21.469c-1.648.663-2.25 1.726-2.25 3.972 0 2.684.564 3.31 4.5 4.997 4.616 1.979 5.884 4.532 2.832 5.703-.918.352-2.933-.085-4.478-.972-1.942-1.114-3.018-1.275-3.484-.52-1.151 1.861 2.887 3.896 7.111 3.583 3.309-.244 4.142-.753 4.933-3.014 1.164-3.33-1.105-6.334-5.518-7.303-2.045-.449-2.896-1.238-2.896-2.684 0-1.83.427-1.98 4-1.409 4.273.683 5.38-.575 2.066-2.349-2.289-1.225-3.776-1.226-6.816-.004m62.389-.337c-.351.352-.639 4.389-.639 8.973 0 6.74.287 8.333 1.5 8.333 1.215 0 1.5-1.605 1.5-8.441 0-7.766-.727-10.498-2.361-8.865m10.676.291c-2.911 1.202-4.315 4.053-4.315 8.761 0 5.321 2.848 8.254 8.016 8.254 4.833 0 7.257-3.046 7.257-9.118 0-6.227-5.464-10.164-10.958-7.897M55 161.644c0 .446.752 4.308 1.67 8.583 1.329 6.183 2.037 7.773 3.462 7.773 1.27 0 2.108-1.237 2.879-4.25 1.878-7.339 2.207-7.471 3.734-1.5 1.1 4.301 1.92 5.75 3.254 5.75 1.394 0 2.135-1.556 3.392-7.123.885-3.917 1.609-7.78 1.609-8.583 0-2.104-2.438-.992-2.826 1.289-.179 1.054-.803 3.717-1.386 5.917l-1.06 4-1.619-6c-2.144-7.944-4.083-7.946-6.186-.006l-1.588 5.994-1.445-5.92c-.795-3.256-1.995-6.103-2.667-6.327-.673-.224-1.223-.043-1.223.403m23 7.856v8.5h6c3.333 0 6-.444 6-1 0-.55-2.025-1-4.5-1-4.333 0-4.5-.111-4.5-3 0-2.833.222-3 4-3 2.2 0 4-.45 4-1s-1.8-1-4-1c-3.6 0-4-.25-4-2.5 0-2.244.404-2.5 3.941-2.5 2.168 0 4.219-.45 4.559-1 .386-.625-1.656-1-5.441-1H78zm14.209-.301.291 8.301h5.47c4.799 0 5.62-.299 6.686-2.437.902-1.809.93-2.967.108-4.5-.608-1.135-1.141-3.638-1.185-5.563l-.079-3.5-5.791-.301-5.792-.301zM127 162c0 .55 1.125 1 2.5 1 2.444 0 2.5.167 2.5 7.5 0 6 .3 7.5 1.5 7.5s1.5-1.5 1.5-7.5c0-7.285.07-7.5 2.441-7.5 1.343 0 2.719-.45 3.059-1 .39-.631-1.99-1-6.441-1-4.039 0-7.059.428-7.059 1m16 5.845c0 8.112 1.308 10.155 6.5 10.155 5.177 0 6.5-2.049 6.5-10.071 0-5.4-.321-6.929-1.456-6.929-1.114 0-1.525 1.704-1.75 7.25l-.294 7.25h-3c-2.996 0-3.001-.009-3.5-6.922-.308-4.266-.98-7.079-1.75-7.333-.92-.303-1.25 1.438-1.25 6.6m17 1.655v8.5h4.889c6.241 0 9.056-2.164 9.769-7.51.416-3.117.058-4.592-1.635-6.74-1.889-2.396-2.867-2.75-7.596-2.75H160zm-65-4.19c0 2.22.291 2.378 3.25 1.773 1.878-.384 3.25-1.281 3.25-2.124 0-.915-1.212-1.576-3.25-1.772-2.863-.276-3.25-.024-3.25 2.123m68 4.19c0 6.097.141 6.5 2.277 6.5 3.894 0 6.723-2.729 6.723-6.485 0-4.148-2.206-6.515-6.071-6.515H163zm26.2-5.3c-.66.66-1.2 3.145-1.2 5.521 0 3.674.386 4.498 2.578 5.496 3.312 1.51 5.598.151 6.8-4.04 1.632-5.689-4.357-10.798-8.178-6.977m-142.486 2.384c-2.677 1.393-4.501 2.951-4.14 3.536.547.884 8.742 4.88 10.009 4.88.229 0 .417-.439.417-.976s-1.589-1.791-3.531-2.788l-3.532-1.812 3.532-1.277c1.942-.702 3.531-1.922 3.531-2.712 0-1.903-.649-1.785-6.286 1.149M203 165.38c0 .773 1.662 2.069 3.692 2.879l3.693 1.472-3.693 1.336c-2.03.734-3.692 1.919-3.692 2.634 0 1.658-.095 1.671 5.373-.748 4.497-1.989 5.921-4.205 3.377-5.255a668 668 0 0 1-5-2.121c-3.129-1.338-3.75-1.371-3.75-.197M95 173c0 2.638.347 3 2.878 3 3.33 0 5.432-2.028 4.532-4.373-.407-1.06-1.806-1.627-4.017-1.627-3.103 0-3.393.256-3.393 3"/></svg>