<svg xmlns="http://www.w3.org/2000/svg" width="256" height="256"><path fill="#1976D2" fill-opacity=".016" fill-rule="evenodd" d="M0 128.004v128.004l128.25-.254 128.25-.254.254-127.75L257.008 0H0zm.485.496c0 70.4.119 99.053.265 63.672s.146-92.98 0-128S.485 58.1.485 128.5"/><path fill="#1976D2" fill-opacity=".032" fill-rule="evenodd" d="M0 127.511v42.497l128.25-.254 128.25-.254.261-42.5.26-42.5-128.51.258L0 85.015zm.458-.011c.001 23.65.132 33.182.291 21.182.16-11.999.16-31.349 0-43S.458 103.85.458 127.5m50.973-18c.001 13.2.143 18.462.316 11.693s.173-17.569-.001-24-.315-.893-.315 12.307m128.961-9.5c0 7.425.157 10.463.35 6.75s.192-9.787 0-13.5c-.193-3.713-.35-.675-.35 6.75M147.3 111c0 3.025.187 4.263.416 2.75s.229-3.987 0-5.5-.416-.275-.416 2.75m-15.048.5c.011 2.2.216 2.982.455 1.738s.23-3.044-.02-4-.446.062-.435 2.262m91.02.5c0 2.475.195 3.487.434 2.25.238-1.237.238-3.263 0-4.5-.239-1.237-.434-.225-.434 2.25m-116.077-.5c.02 1.65.244 2.204.498 1.231s.237-2.323-.037-3-.481.119-.461 1.769m105 0c.02 1.65.244 2.204.498 1.231s.237-2.323-.037-3-.481.119-.461 1.769m12.555 13.162c.688.278 1.813.278 2.5 0 .688-.277.125-.504-1.25-.504s-1.937.227-1.25.504m-44.878 10.588c1.093 1.393 2.723 1.711 8 1.557l6.628-.192-6.462-.361c-3.554-.198-7.154-.899-8-1.557-1.348-1.049-1.369-.981-.166.553M66.25 136.745c4.812.183 12.687.183 17.5 0 4.813-.184.875-.334-8.75-.334s-13.562.15-8.75.334m87.478-.023c1.775.221 4.925.224 7 .008 2.074-.217.622-.397-3.228-.402-3.85-.004-5.548.173-3.772.394m-38.459.971c.973.254 2.323.237 3-.037s-.119-.481-1.769-.461-2.204.244-1.231.498m7 0c.973.254 2.323.237 3-.037s-.119-.481-1.769-.461-2.204.244-1.231.498m98 0c.973.254 2.323.237 3-.037s-.119-.481-1.769-.461-2.204.244-1.231.498m9 0c.973.254 2.323.237 3-.037s-.119-.481-1.769-.461-2.204.244-1.231.498M84.31 145.5c.005 3.3.192 4.529.415 2.732s.218-4.497-.01-6c-.229-1.503-.411-.032-.405 3.268m-21.56 3.162c.688.278 1.813.278 2.5 0 .688-.277.125-.504-1.25-.504s-1.937.227-1.25.504m27 0c.688.278 1.813.278 2.5 0 .688-.277.125-.504-1.25-.504s-1.937.227-1.25.504m35.519.031c.973.254 2.323.237 3-.037s-.119-.481-1.769-.461-2.204.244-1.231.498m59.481-.031c.688.278 1.813.278 2.5 0 .688-.277.125-.504-1.25-.504s-1.937.227-1.25.504m37 0c.688.278 1.813.278 2.5 0 .688-.277.125-.504-1.25-.504s-1.937.227-1.25.504M135.158 152c0 1.375.227 1.938.504 1.25.278-.687.278-1.812 0-2.5-.277-.687-.504-.125-.504 1.25m91.406 4.293c.376.986.935 1.541 1.243 1.233s.001-1.114-.683-1.793c-.988-.98-1.102-.865-.56.56M75.195 158.5c.02 1.65.244 2.204.498 1.231s.237-2.323-.037-3-.481.119-.461 1.769M84 159.941c0 1.068.385 2.179.856 2.47.47.291.643-.583.383-1.941-.564-2.951-1.239-3.239-1.239-.529m134.079-.358c.048 1.165.285 1.402.604.605.289-.722.253-1.585-.079-1.917s-.568.258-.525 1.312m-155.303 3.15c2.352.212 5.952.209 8-.006s.124-.388-4.276-.384c-4.4.003-6.076.179-3.724.39m5.037 1.95c.721.289 1.584.253 1.916-.079s-.258-.568-1.312-.525c-1.165.048-1.402.285-.604.604"/><path fill="#1976D2" fill-opacity=".424" fill-rule="evenodd" d="M3.667 85.667c-1.901 1.9.913 5.395 18.573 23.074L41.481 128H3v5h48V86h-6v37.433l-19.308-19.217C15.072 93.647 5.922 85 5.358 85c-.563 0-1.325.3-1.691.667m106.506 1.602c-5.319 1.702-12.755 9.055-14.583 14.421-6.509 19.101 6.936 36.665 26.842 35.067 6.96-.558 11.546-2.549 16.403-7.119 12.383-11.65 9.385-32.956-5.748-40.861-4.454-2.327-6.472-2.76-12.451-2.675-3.925.056-8.633.581-10.463 1.167m102.286 1.098c-9.586 4.464-14.035 12.813-13.252 24.873.679 10.475 4.39 16.37 13.28 21.093 5.398 2.869 19.731 3.048 26.763.334l4.75-1.832V108h-19v4.5c0 4.476.019 4.5 3.5 4.5 3.417 0 3.5.095 3.5 4 0 3.66-.233 4.013-2.75 4.151-4.842.265-8.648-.305-11.349-1.702-6.486-3.354-7.837-15.775-2.341-21.512 4.895-5.109 15.21-6.176 22.627-2.34 4.314 2.231 4.813 1.801 4.813-4.146v-5.549l-4.25-1.929c-6.43-2.919-19.601-2.721-26.291.394M58 111.5V136h34v-11H71V87H58zm93 0V136h12.945l.278-13.985.277-13.985 8.5 13.981 8.5 13.981 6.25.004L194 136V87h-12.944l-.278 13.559-.278 13.559-8.356-13.559L163.787 87H151zm-38.244-11.745c-5.595 3.469-7.485 12.898-3.796 18.946 3.583 5.877 10.898 7.884 17.433 4.783 4.259-2.021 6.607-6.263 6.607-11.938 0-8.763-4.696-13.572-13.2-13.519-2.365.014-5.535.792-7.044 1.728M79 154.478v14.479l4.25.084c2.338.046 5.962.133 8.055.194 5.576.162 9.195-3.713 9.195-9.844 0-3.808-.486-4.982-2.932-7.086-2.536-2.182-3.65-2.463-8.25-2.081l-5.318.441v-5.333c0-5.021-.146-5.332-2.5-5.332H79zm114-9.164v5.314l-5.821-.421c-5.538-.401-5.951-.267-8.5 2.762-4.468 5.311-3.113 12.648 2.861 15.483 4.019 1.907 5.221 1.921 8.71.101 1.512-.789 2.75-1.011 2.75-.494 0 .518 1.125.941 2.5.941h2.5v-29h-2.5c-2.353 0-2.5.312-2.5 5.314m11.061-3.352c-1.91 1.181-.835 4.538 1.453 4.538 1.262 0 2.096-.773 2.289-2.123.33-2.315-1.741-3.651-3.742-2.415M139 147.5c0 1.556-.567 2.5-1.5 2.5-.833 0-1.5.889-1.5 2s.667 2 1.5 2c1.158 0 1.503 1.312 1.515 5.75.009 3.162.346 6.245.75 6.85 2.453 3.674 10.724 4.18 10.038.614-.182-.943-.549-1.525-.817-1.295s-1.498-.123-2.736-.785c-1.87-1.001-2.25-2.044-2.25-6.169 0-4.667.154-4.965 2.573-4.965 3.283 0 2.991-3.345-.333-3.82-1.618-.23-2.24-.994-2.24-2.75 0-1.925-.519-2.43-2.5-2.43-2 0-2.5.5-2.5 2.5M9.386 150.01c-12.685 6-12.367 7.159 3.939 14.37L19 166.89v-2.491c0-2.085-.995-2.936-6.098-5.214l-6.098-2.723 6.098-2.915c4.87-2.328 6.098-3.381 6.098-5.231 0-1.274-.337-2.277-.75-2.23s-4.401 1.813-8.864 3.924M237 148.316c0 1.85 1.228 2.903 6.098 5.231l6.098 2.915-6.098 2.723c-5.131 2.291-6.098 3.122-6.098 5.244v2.521l7.75-3.568c4.262-1.963 8.313-3.799 9-4.082.688-.283 1.25-1.569 1.25-2.859 0-1.966-1.394-2.998-8.638-6.393-4.752-2.226-8.802-4.048-9-4.048s-.362 1.042-.362 2.316m-215 2.479c0 .438 1.276 4.6 2.835 9.25 2.475 7.382 3.154 8.493 5.353 8.757 2.303.277 2.674-.238 4.323-6l1.803-6.302 2.036 6.25c1.688 5.185 2.414 6.25 4.26 6.25 1.901 0 2.625-1.206 4.955-8.25 1.5-4.537 2.935-8.812 3.189-9.5.292-.794-.472-1.25-2.096-1.25-2.222 0-2.783.72-4.294 5.513-.956 3.032-2.037 5.17-2.403 4.75s-1.241-2.9-1.944-5.513c-1.035-3.85-1.696-4.75-3.489-4.75-1.843 0-2.525 1.036-4.097 6.227l-1.885 6.228-1.86-6.228c-1.613-5.402-2.179-6.227-4.273-6.227-1.327 0-2.413.358-2.413.795m34.589 2.282c-4.926 5.853-2.353 13.715 5.233 15.988 4.512 1.352 10.529.067 10.994-2.348.268-1.394-.555-1.634-5.185-1.512-3.48.092-6.139-.379-7.231-1.28-1.533-1.265-.84-1.481 6.187-1.925l7.913-.5-.173-3.485c-.252-5.067-4.038-8.015-10.294-8.015-4.194 0-5.208.419-7.444 3.077m63.029-1.552c-3.704 3.704-1.079 8.366 5.641 10.018 1.518.373 3.038 1.129 3.379 1.68.786 1.272-1.663 2.853-3.638 2.347-6.863-1.758-7.161-1.73-6.824.641.464 3.27 6.988 4.583 12.119 2.439 3.078-1.286 3.705-2.044 3.705-4.477 0-3.431-1.221-4.634-6.481-6.386-6.081-2.024-5.856-4.072.4-3.641 4.681.321 5.129.17 4.868-1.646-.242-1.687-1.169-2.046-5.919-2.296-4.154-.219-6.057.128-7.25 1.321m33.382 6.02c0 6.678.282 7.828 2.455 10 2.806 2.807 4.889 3.046 8.795 1.008 1.512-.789 2.75-1.011 2.75-.494 0 .518 1.125.941 2.5.941 2.493 0 2.5-.029 2.5-9.57 0-9.352-.051-9.562-2.25-9.25-2.006.285-2.304 1.021-2.75 6.796-.433 5.613-.825 6.638-2.937 7.685-4.502 2.234-6.063.253-6.063-7.696 0-6.763-.073-6.965-2.5-6.965-2.446 0-2.5.164-2.5 7.545m50 1.955c0 9.467.009 9.5 2.5 9.5s2.5-.033 2.5-9.5-.009-9.5-2.5-9.5-2.5.033-2.5 9.5m12.672-7.457c-5.574 4.385-4.192 12.982 2.621 16.31 10.711 5.232 21.012-7.201 12.784-15.43-2.442-2.442-3.736-2.923-7.865-2.923-3.463 0-5.72.612-7.54 2.043M60.2 155.2c-2.19 2.19-1.254 2.8 4.3 2.8 3.025 0 5.5-.36 5.5-.8 0-1.719-2.545-3.2-5.5-3.2-1.705 0-3.64.54-4.3 1.2m24.854.235c-.655.789-1.047 2.916-.872 4.727.584 6.049 7.629 7.096 10.759 1.599 1.278-2.246 1.247-2.825-.274-5.146-1.284-1.96-2.554-2.615-5.068-2.615-1.845 0-3.89.646-4.545 1.435m97.601.394c-3.022 3.339-1.925 7.358 2.464 9.026 5.45 2.072 9.777-3.444 6.907-8.806-1.422-2.657-7.046-2.789-9.371-.22m35.726.712c-2.03 3.099-.681 7.039 2.861 8.358 5.082 1.892 9.313-3.19 6.958-8.359-1.648-3.617-7.448-3.617-9.819.001"/><path fill="#1976D2" fill-opacity=".199" fill-rule="evenodd" d="M4 87.76c0 .968 8.55 10.301 19 20.74s19 19.322 19 19.74-8.55.76-19 .76c-18.333 0-19 .07-19 2 0 1.942.667 2 23 2h23v-23.5c0-22.833-.057-23.5-2-23.5-1.93 0-2 .667-2 19 0 10.45-.342 19-.76 19s-9.301-8.55-19.74-19S5.953 86 5.26 86 4 86.792 4 87.76m107.882-.379c-9.025 3.225-14.57 9.034-16.906 17.709-1.427 5.299-.57 12.825 2.043 17.948 2.464 4.829 8.907 10.324 13.839 11.801 5.909 1.771 15.992 1.412 20.723-.736 15.581-7.077 19.24-28.877 6.85-40.804-6.78-6.527-17.906-9.007-26.549-5.918m103.132.517c-7.058 2.514-12.327 8.048-14.44 15.166-1.944 6.546-1.98 10.268-.158 16.322 2.053 6.824 6.037 11.474 12.274 14.33 4.788 2.191 6.455 2.429 14.607 2.085 5.59-.236 10.675-1.038 12.953-2.044l3.75-1.655V108h-19v3.94c0 3.83.104 3.948 3.75 4.25 3.44.284 3.776.584 4.068 3.625.449 4.672-1.213 6.185-6.793 6.185-15.406 0-20.54-20.159-6.954-27.303 4.228-2.223 14.806-1.949 19.679.51l3.25 1.64v-5.475c0-5.376-.067-5.503-3.75-7.067-5.948-2.527-16.754-2.716-23.236-.407M58 111v24h33v-9H70V87H58zm93.785.001-.285 24.001 5.75-.001L163 135v-14c0-7.7.353-14 .784-14s1.635 1.463 2.673 3.25 4.954 8.2 8.702 14.25l6.813 11 5.514-.343 5.514-.342V87h-11v14c0 7.7-.354 14-.786 14s-4.595-6.283-9.25-13.962L163.5 87.075l-5.715-.037-5.716-.038zm-37.714-12.249c-5.293 2.699-7.5 6.412-7.5 12.622 0 6.729 2.18 10.186 8.063 12.788 9.598 4.246 19.353-2.307 19.362-13.008.005-5.559-2.514-9.84-7.206-12.249-4.611-2.367-8.29-2.412-12.719-.153M8.75 151.062C4.487 153.241 1 155.593 1 156.289s3.825 3.162 8.5 5.481c7.235 3.588 8.5 3.951 8.5 2.436 0-1.182-2.098-2.83-6.25-4.91l-6.25-3.131 6.25-2.746c4.401-1.934 6.25-3.29 6.25-4.583 0-2.433-.257-2.372-9.25 2.226M238 148.836c0 1.293 1.849 2.649 6.25 4.583l6.25 2.746-6.25 3.131c-4.152 2.08-6.25 3.728-6.25 4.91 0 1.515 1.265 1.152 8.5-2.436 4.675-2.319 8.5-4.785 8.5-5.482 0-1.029-14.651-9.288-16.478-9.288-.287 0-.522.826-.522 1.836"/></svg>