<svg xmlns="http://www.w3.org/2000/svg" width="256" height="256"><path fill="#f9cf53" fill-opacity=".016" fill-rule="evenodd" d="M0 128.004v128.004l128.25-.254 128.25-.254.254-127.75L257.008 0H0zm.485.496c0 70.4.119 99.053.265 63.672s.146-92.98 0-128S.485 58.1.485 128.5"/><path fill="#f9cf53" fill-opacity=".147" fill-rule="evenodd" d="M131.385 2.227c-4.485 3.461-5.248 4.948-4.876 9.507.19 2.331-.123 4.527-.695 4.881-1.936 1.197-4.667 8.852-5.359 15.019-.687 6.133-.688 6.134-4.321 6.651-1.999.285-4.364.813-5.255 1.174-1.189.481-2.308-.516-4.195-3.735C103.843 30.876 96.769 24 94.622 24c-.755 0-1.621-1.244-1.925-2.764s-1.382-3.72-2.397-4.89c-2.381-2.746-9.151-4.714-10.984-3.194-.724.601-1.316.751-1.316.333s-1.302.879-2.894 2.881c-2.527 3.181-2.789 4.104-2.069 7.296 1.073 4.758 5.188 8.341 9.022 7.856 4.465-.565 7.332-1.67 8.51-3.281 2.086-2.853 9.318 2.548 12.904 9.638l1.707 3.375-5.13 4.487c-6.433 5.628-16.081 19.962-17.068 25.359-.898 4.915.414 11.474 3.014 15.06 1.925 2.656 1.922 2.655-5.958-1-6.756-3.133-7.969-4.078-8.476-6.608C70.294 72.231 62 67.799 62 73.439c0 2.217-.371 2.422-4.069 2.25-3.821-.177-4.142.025-5.25 3.311-1.868 5.536-1.07 8.669 2.527 9.923 1.7.592 4.174 1.077 5.498 1.077 2.288 0 2.33.11.851 2.223-3.425 4.889-.641 11.771 6.654 16.445 2.359 1.512 4.457 2.861 4.663 2.998s-.806 1.653-2.25 3.368c-3.438 4.086-3.584 9.716-.331 12.772 4.634 4.353 9.791 4.785 18.27 1.532.974-.374 1.437.139 1.437 1.595 0 5.087 7.058 14.032 15.784 20.004 2.034 1.392 4.607 4.876 6.762 9.155 1.914 3.799 3.884 6.908 4.379 6.908s3.527-2.169 6.738-4.82c4.407-3.64 7.239-5.126 11.56-6.066l5.723-1.245-3.973-3.78c-4.624-4.399-4.905-6.581-1.71-13.279l2.237-4.691 7.25 3.152c3.988 1.734 7.25 3.75 7.25 4.48s-.9 3.093-2 5.249c-2.606 5.108-2.546 5.333.948 3.527C157.265 146.26 162 136.562 162 126.888c0-2.637.518-5.931 1.152-7.322.961-2.109 1.582-2.407 3.75-1.797 5.115 1.439 11.842.812 14.782-1.377 5.658-4.212 5.574-10.166-.226-16.139-3.811-3.923-4.107-4.439-2.106-3.671 1.535.589 7.299-5.534 8.715-9.258 1.605-4.221 1.079-8.269-1.395-10.743l-2.328-2.328 7.418-15.876c4.08-8.733 8.485-18.254 9.788-21.16l2.369-5.283-2.972-.595c-2.03-.406-3.162-1.346-3.568-2.967-.479-1.907-1.254-2.372-3.952-2.372-2.333 0-3.683-.61-4.427-2-1.088-2.032-5.338-2.708-7.677-1.221-.648.412-4.433 7.718-8.412 16.235s-7.368 15.655-7.532 15.862c-.163.206-1.451-.996-2.861-2.673-3.387-4.024-9.892-7.054-15.768-7.343-2.613-.129-4.75-.544-4.75-.924 0-1.095-9.074-4.653-13.867-5.437l-4.367-.714.687-6.069c.377-3.338 1.568-7.798 2.647-9.911 1.634-3.205 2.261-3.682 3.773-2.873.997.534 4.021.791 6.72.572 3.908-.318 5.364-.969 7.152-3.201 3.92-4.894 2.547-12.013-2.834-14.697-4.37-2.181-7.106-2.019-10.526.621m65.181 7.259-4.934 4.286 4.144 2.114c6.583 3.358 7.224 3.019 7.224-3.827 0-3.268-.338-6.148-.75-6.4s-2.97 1.47-5.684 3.827M152.447 52.12c2.952 3.508 5.51 8.137 6.562 11.874.696 2.474.728 2.459 2.508-1.19l1.802-3.697-2.711-3.554C158.013 52.15 153.375 49 150.961 49c-.626 0 .043 1.404 1.486 3.12M64 73.8c0 .44.559 1.359 1.242 2.042 1.962 1.962-.624 2.935-5.741 2.158-2.428-.368-4.183-.294-3.899.165s1.202.835 2.04.835c2.325 0 1.031 2.355-1.716 3.123-2.362.66-2.367.68-.176.777 2.686.119 2.932 1.604.5 3.02-1.342.782-.455 1.026 3.809 1.05 3.057.016 6.295-.532 7.195-1.22 2.688-2.054 3.005-5.901.783-9.5C66.18 73.245 64 71.921 64 73.8m1 20.457c0 .709 24.035 9.041 24.562 8.515.25-.251-4.611-2.175-10.803-4.276a2617 2617 0 0 1-12.509-4.265c-.687-.245-1.25-.233-1.25.026m110.667.41c-.367.366-.653 1.379-.637 2.25.025 1.3.221 1.257 1.092-.242 1.077-1.852.765-3.228-.455-2.008M170 98.962c0 1.172 4.805 2.567 5.713 1.658.84-.84.273-1.222-2.963-1.998-1.606-.386-2.75-.244-2.75.34m-79.131 2.38c.612.738.78 1.751.372 2.25-.407.499-.332.574.167.167.499-.408 1.624-.197 2.5.469s.501-.012-.832-1.508c-2.434-2.731-4.293-3.891-2.207-1.378M169 102.5c.685.825 2.202 1.484 3.372 1.465 2.005-.034 1.983-.119-.372-1.465-3.275-1.872-4.554-1.872-3 0m-.867 3.061c.897.897 2.471 1.458 3.499 1.247 1.385-.285.963-.707-1.631-1.631-3.235-1.153-3.376-1.124-1.868.384m-78.692 9.013c-1.067.866-1.417 1.313-.776.994.64-.319 1.349-.027 1.574.65s.672.23.992-.994c.693-2.65.682-2.654-1.79-.65m-7.191 3.992c-2.338 1.401-4.25 2.784-4.25 3.072 0 .539 6.747-3.292 8.45-4.798 1.719-1.52.118-.862-4.2 1.726m44.184 22.841c-.666 2.652.522 5.498 3.203 7.675 1.121.911.916.285-.574-1.752-1.666-2.275-2.137-3.897-1.673-5.75.357-1.419.423-2.58.148-2.58s-.772 1.083-1.104 2.407m-46.577 21.921c-10.01 3.745-14.885 9.326-17.522 20.064-3.282 13.364.923 27.328 10.19 33.841 8.818 6.199 23.138 5.859 31.799-.754 12.791-9.767 13.949-35.139 2.143-46.946-1.738-1.738-4.882-3.977-6.987-4.975-4.991-2.369-14.916-2.991-19.623-1.23m128.143.209c-6.316 1.961-11.401 6.543-14.686 13.233-2.487 5.064-2.814 6.834-2.81 15.23.004 11.292 2.411 17.883 8.556 23.435 3.793 3.427 11.877 6.57 16.872 6.559 4.665-.01 10.072-2.059 13.595-5.152l3.473-3.049v3.603c0 3.538.073 3.604 4 3.604h4v-31h-24v9h5.5c5.191 0 5.5.14 5.5 2.484 0 3.929-4.814 8.555-9.5 9.13-9.153 1.123-14.802-5.716-14.857-17.988-.057-12.869 4.319-19.626 12.711-19.626 5.103 0 8.385 2.131 10.285 6.678l1.427 3.416 6.217-.297c5.992-.286 6.204-.387 5.863-2.791-1.838-12.94-17.565-20.997-32.146-16.469M15 192v29h37v-11H27v-47H15zm112.235-.25.265 28.75 6.25.298 6.25.297V182.67l13.146 19.165L166.293 221H177v-58h-11.955l-.272 18.204-.273 18.204-12.5-18.194-12.5-18.195-6.265-.009-6.266-.01zm-42.616-18.691c-6.904 2.008-9.604 7.548-9.613 19.723C74.996 205.233 79.128 211 88.058 211c5.784 0 10.185-3.175 11.992-8.651 1.699-5.148.822-20.37-1.366-23.708-3.173-4.843-8.854-7.097-14.065-5.582m28.623 61.929c-1.242.524-2.777 2.092-3.411 3.483-1.865 4.094.188 7.183 5.878 8.84 5.651 1.646 7.264 4.689 2.487 4.689-1.623 0-3.511-.675-4.196-1.5-1.818-2.19-5-1.908-5 .443 0 2.794 3.803 5.057 8.5 5.057 5.578 0 8.5-2.234 8.5-6.5 0-3.704-2.809-6.5-6.531-6.5-1.148 0-2.929-.616-3.958-1.368-1.813-1.326-1.805-1.404.236-2.497 2.179-1.166 5.253-.597 5.253.972 0 .491 1.125.893 2.5.893 5.356 0 1.276-5.756-4.626-6.526-1.856-.242-4.39-.011-5.632.514m89.146-.046c-1.161.49-3.118 2.166-4.348 3.725-3.169 4.014-2.458 11.717 1.387 15.024 5.532 4.758 14.368 1.96 16.142-5.111 2.165-8.626-5.721-16.785-13.181-13.638m-163.114 10.55c2.686 9.311 3.308 10.567 5.101 10.306 1.519-.222 2.465-1.706 3.694-5.798 1.56-5.191 1.71-5.36 2.664-3 .557 1.375 1.33 3.963 1.719 5.75.534 2.455 1.239 3.25 2.884 3.25 1.897 0 2.534-1.253 4.955-9.75 1.528-5.363 2.763-10.119 2.744-10.57-.019-.45-1.047-.675-2.283-.5-1.822.259-2.546 1.445-3.817 6.254l-1.568 5.933-1.735-6.183c-1.365-4.863-2.151-6.184-3.68-6.184-1.528 0-2.308 1.31-3.649 6.134l-1.705 6.134-1.624-5.884c-1.396-5.058-1.984-5.927-4.192-6.19l-2.568-.306zM66 245.5V256h7.5c6.833 0 7.5-.178 7.5-2 0-1.733-.667-2-5-2-4.667 0-5-.167-5-2.5 0-2.25.4-2.5 4-2.5 3.333 0 4-.333 4-2s-.667-2-4-2-4-.333-4-2c0-1.733.667-2 5-2s5-.267 5-2c0-1.822-.667-2-7.5-2H66zm18 0V256h5.918c7.34 0 8.983-.608 10.185-3.771.708-1.863.538-3.128-.67-4.971-1.171-1.788-1.317-2.774-.526-3.565 1.588-1.588 1.339-5.305-.478-7.122-1.103-1.102-3.49-1.571-8-1.571H84zm43-8.5c0 1.619.667 2 3.5 2h3.5v8.5c0 8.4.029 8.5 2.5 8.5s2.5-.1 2.5-8.5V239h3c2.333 0 3-.444 3-2 0-1.852-.667-2-9-2s-9 .148-9 2m20 6.5c0 10.412 1.42 12.5 8.5 12.5s8.5-2.088 8.5-12.5c0-8.4-.029-8.5-2.5-8.5-2.459 0-2.5.131-2.5 8.031 0 6.513-.309 8.15-1.636 8.66-3.496 1.341-4.85-1.035-5.156-9.046-.282-7.374-.379-7.645-2.75-7.645-2.418 0-2.458.139-2.458 8.5m21 2.12v10.62l6.151-.445c7.566-.547 10.849-3.514 10.849-9.804 0-8.004-3.274-10.991-12.047-10.991H168zm20-.12V256h5v-21h-5zm-167-4.147c-8.121 3.338-8.004 5.632.458 9.02 7.861 3.146 7.542 3.12 7.542.619 0-1.425-1.218-2.496-4.193-3.686l-4.193-1.677 4.193-1.398c2.979-.993 4.193-1.952 4.193-3.314 0-2.426-1.193-2.361-8 .436M89 241c0 1.556.667 2 3 2s3-.444 3-2-.667-2-3-2-3 .444-3 2m84 4.5c0 7.007.739 7.772 4.777 4.943 4.103-2.874 2.372-11.443-2.312-11.443-2.367 0-2.465.258-2.465 6.5m28.904-3.75c-2.075 5.448 1.948 12.084 5.846 9.644 1.874-1.174 2.773-6.172 1.805-10.032-.459-1.827-1.274-2.362-3.599-2.362-2.358 0-3.231.592-4.052 2.75m22.096-.994c0 1.351 1.181 2.436 3.75 3.445l3.75 1.472-3.75 1.612c-2.59 1.114-3.75 2.247-3.75 3.664 0 2.548-.324 2.572 7.489-.555 8.181-3.275 8.694-5.53 1.918-8.434-7.583-3.25-9.407-3.484-9.407-1.204M89 249.5c0 2.282.366 2.591 2.75 2.316 1.978-.227 2.75-.878 2.75-2.316s-.772-2.089-2.75-2.316c-2.384-.275-2.75.034-2.75 2.316"/><path fill="#f9cf53" fill-opacity=".65" fill-rule="evenodd" d="M130.606 3.465c-3.314 3.125-3.666 3.931-3.305 7.548.223 2.228.015 4.292-.462 4.587-3.323 2.053-7.819 21.196-5.76 24.527 1.439 2.329 2.921-.424 2.927-5.436.006-6.293 1.447-11.844 3.769-14.519 1.443-1.663 2.46-1.877 6.225-1.309 4.526.682 8.645-.513 10.801-3.134 1.43-1.739 2.205-7.607 1.095-8.293-.511-.316-.707-.933-.436-1.371.68-1.1-2.436-3.682-5.46-4.526-1.375-.384-3.216-.895-4.092-1.136-.889-.244-3.23 1.108-5.302 3.062m66.418 6.285-4.476 3.979 4.323 2.205c2.378 1.213 4.528 2 4.779 1.749s.32-3.034.153-6.184L201.5 5.77zM79.069 13.723c-.787.31-2.448 1.662-3.692 3.004C70.746 21.724 75.015 31 81.945 31c1.142 0 4.106-.954 6.586-2.12l4.509-2.119 3.888 2.573c2.706 1.79 4.752 4.396 6.73 8.569 2.753 5.809 5.352 7.927 5.333 4.347-.015-2.733-5.538-11.691-9.009-14.612-1.725-1.451-4.226-2.912-5.559-3.247-1.965-.493-3.12-2.359-2.254-3.641.653-.966-2.715-4.876-5.317-6.174-3.245-1.619-5.279-1.842-7.783-.853m104.003 9.155c-1.954.546-3.852 3.699-9.717 16.15-4.009 8.51-7.424 15.833-7.589 16.274s-2.39-1.201-4.944-3.648c-7.364-7.056-18.151-8.116-25.965-2.552-1.564 1.113-3.23 1.785-3.703 1.493s-1.713.153-2.757.989c-1.809 1.449-1.786 1.489.506.852l2.404-.668-2.07 3.366c-1.138 1.851-2.376 5.022-2.751 7.047-.767 4.137-3.429 5.887-4.986 3.278-4.744-7.95-10.182-10.816-19.524-10.288-5.381.304-7.393.91-10.242 3.082-10.495 8.006-11.516 22.017-2.278 31.256 6.942 6.942 17.17 7.651 26.008 1.803 3.149-2.084 5.05-2.614 8.682-2.421 2.802.148 4.948-.233 5.397-.961.555-.898-.153-1.038-2.764-.548-1.931.362-4.235.38-5.12.041-1.473-.566-1.468-.885.057-3.77.964-1.826 1.691-5.573 1.725-8.902.075-7.284 1.52-7.395 4.952-.38 3.566 7.288 8.791 10.87 16.688 11.441 3.255.236 5.917.712 5.915 1.058s-.886 2.077-1.964 3.845c-5.644 9.257-32.341 14.509-46.612 9.169-3.231-1.209-7.854-4.101-10.787-6.75-2.823-2.549-8.325-6.099-12.227-7.89-6.365-2.922-7.211-3.65-8.241-7.088-.631-2.107-2.018-4.618-3.082-5.581-2.446-2.214-5.583-1.687-5.583.939 0 1.613-.845 2.08-4.5 2.486-3.022.336-4.544.993-4.635 2-.074.825-.236 1.725-.359 2-.124.275-.349 1.975-.5 3.777-.196 2.336.247 3.556 1.544 4.25 2.783 1.489 11.731 1.162 14.302-.522 2.122-1.39 2.693-1.247 8.153 2.04 6.606 3.978 19.14 13.955 19.807 15.767.333.903.756.888 1.763-.062 1.776-1.675 2.925-1.577 2.925.25 0 .825.873 1.5 1.941 1.5s2.232.472 2.589 1.048 1.395.925 2.309.775c.913-.15 2.336.166 3.161.702s3.323 1.005 5.55 1.043c2.228.037 4.591.401 5.25.809.66.407 1.762.394 2.449-.031.688-.425 2.488-.642 4-.484s2.751-.083 2.751-.537c0-.715 1.411-.788 7.767-.402.866.053.451 1.686-1.31 5.163l-2.577 5.085-5.19-.672c-11.682-1.511-20.586-3.791-27.544-7.052-4.044-1.896-7.495-3.447-7.667-3.447-.869 0-3.598 8.999-3.015 9.942 2.111 3.416 18.931 9.08 32.34 10.891 5.656.763 6.444.651 7.661-1.087 1.607-2.294 2.352-2.118 14.286 3.37 4.647 2.136 8.619 3.884 8.828 3.884s1.348-1.912 2.531-4.25 2.767-4.61 3.52-5.05 1.37-1.881 1.37-3.203c0-4.467 2.076-7.497 5.137-7.497 2.959 0 5.073-2.339 6.328-7 .37-1.375 1.261-3.85 1.981-5.5 3.165-7.256 3.534-9.569 1.645-10.306-1.563-.61-.116-4.248 12.011-30.194 7.584-16.225 13.814-29.837 13.844-30.25s-1.094-.75-2.498-.75c-1.954 0-2.805-.725-3.631-3.094-.928-2.662-1.479-3.036-3.946-2.674-2.178.32-3.235-.139-4.393-1.905-1.623-2.478-1.675-2.492-5.406-1.449M139.5 49.487c-4.204 1.975-5.929 3.527-8.37 7.531-2.591 4.251-2.822 11.722-.511 16.592 3.227 6.799 11.603 11.189 18.78 9.843 3.146-.59 3.706-1.349 8.485-11.49 2.814-5.972 5.116-11.6 5.116-12.506 0-2.745-3.937-7.384-8.044-9.48-4.503-2.297-11.159-2.508-15.456-.49m-43 9.086c-4.01 2.085-7.365 5.301-9.19 8.811-1.917 3.686-1.868 11.637.096 15.435 3.351 6.48 12.109 11.062 18.748 9.807 4.989-.942 10.154-4.382 9.426-6.278-.433-1.129-.163-1.402.964-.97 1.114.428 1.984-.398 3.011-2.856 4.215-10.088-1.721-23.739-9.634-22.156-2.62.524-2.967.395-2.017-.75.887-1.07.783-1.522-.46-1.999-2.836-1.088-7.857-.65-10.944.956m35.096 4.733c-2.55 1.864-1.764 6.099 1.209 6.521 4.423.627 6.654-3.225 3.624-6.256-1.91-1.909-2.537-1.944-4.833-.265m-20.021 4.611c-2.488 2.749-.519 6.327 3.242 5.893 3.337-.386 4.339-4.492 1.587-6.504-2.344-1.714-2.774-1.66-4.829.611m-47.13 7.719.661 2.636-5.053-.671c-5.169-.685-6.94.53-2.803 1.923 2.17.731 2.152.773-.5 1.184-3.331.515-3.559 1.791-.5 2.802l2.25.744-2.25.443c-4.871.958-1.114 3.261 5.365 3.289C65.67 88.004 70 84.591 70 81.378 70 77.935 67.27 73 65.366 73c-1.211 0-1.427.62-.921 2.636m109.9 19.907c-.326.849-.341 1.794-.035 2.1.876.876 2.69-.609 2.69-2.202 0-1.919-1.908-1.845-2.655.102m-4.309 3.85c2.338 2.224 5.964 3.003 5.964 1.281 0-1.627-2.073-2.674-5.296-2.674-1.857 0-1.943.18-.668 1.393M168 102.032c0 .568 1.012 1.478 2.25 2.023 2.009.885 1.945.93-.598.424-2.06-.41-2.73-.209-2.423.727.726 2.21 5.137 2.083 6.54-.187 1.131-1.829.987-2.161-1.315-3.036-3.299-1.255-4.454-1.242-4.454.049m-77.487 30.067c1.899 6.13 4.715 10.098 8.201 11.555 3.779 1.579 17.426 4.68 25.606 5.819l4.82.671-1.721-2.627c-.946-1.444-1.685-3.85-1.643-5.345.076-2.657-.143-2.76-9.437-4.47-8.093-1.489-16.878-4.066-24.704-7.246-1.609-.654-1.764-.429-1.122 1.643m65.412 7.679c-1.929.24-3.132 1.468-4.796 4.892-1.221 2.515-1.968 4.824-1.66 5.133.666.666 7.263-5.51 8.694-8.139 1.195-2.196 1.072-2.3-2.238-1.886M110 153.625c0 1.707 6.286 12.375 7.292 12.375.694 0 3.434-1.912 6.088-4.25l4.825-4.25-4.168-.279c-2.292-.153-6.389-1.123-9.103-2.154s-4.934-1.68-4.934-1.442m-94.288 9.997c-.392.391-.712 13.236-.712 28.545V220h17.5c9.625 0 17.837.113 18.25.25s.887-1.887 1.055-4.5l.305-4.75H27.036l-.268-23.75-.268-23.75-5.038-.295c-2.772-.162-5.359.025-5.75.417m62.288.692c-1.925.61-5.604 3.208-8.175 5.775C64.285 175.618 62 182.017 62 192c0 9.989 2.285 16.384 7.825 21.901C75.056 219.109 79.898 221 88 221c10.754 0 17.999-4.249 22.765-13.351 2.43-4.641 2.696-6.185 2.696-15.649s-.266-11.008-2.696-15.649c-3.139-5.994-8.296-10.594-13.687-12.21-4.689-1.404-14.379-1.317-19.078.173m50 27.436v28.75h11v-19.45c0-13.627.315-19.135 1.054-18.396.579.579 6.769 9.283 13.755 19.343l12.702 18.289h9.989V163.5h-11v18.251c0 10.037-.268 18.25-.595 18.25-.327-.001-6.317-8.326-13.311-18.501L138.877 163H128zm79-27.436c-5.291 1.677-12.387 9.326-14.471 15.598-2.418 7.282-1.792 21.869 1.185 27.601 4.673 8.995 11.947 13.43 22.086 13.465 6.532.023 10.812-1.486 14.95-5.269l2.25-2.058v3.175c0 3.036.173 3.174 4 3.174h4v-29h-24v7h5.441c2.993 0 5.725.459 6.071 1.02s.102 2.62-.544 4.577c-3.067 9.292-17.243 9.979-22.494 1.09-2.281-3.862-3.104-15.678-1.504-21.595 3.214-11.886 17.165-14.685 22.628-4.539 1.787 3.317 2.075 3.447 7.629 3.447 6.497 0 6.706-.35 3.893-6.541-2.03-4.47-6.901-9.042-11.838-11.111-3.795-1.59-14.315-1.609-19.282-.034m-125.81 9.712c-4.851 2.957-6.589 7.813-6.612 18.474-.022 10.324 1.53 14.376 6.721 17.54 6.345 3.869 14.769 1.464 18.373-5.246 2.391-4.451 2.445-19.672.09-25.022-1.968-4.468-6.961-7.765-11.762-7.765-1.925 0-4.99.909-6.81 2.019M37.252 236.75l2.801 10.102c2.048 7.382 3.965 10.463 5.534 8.894.276-.275 1.33-3.368 2.344-6.873 1.929-6.672 2.063-6.622 4.375 1.627.838 2.991 2.042 5.126 2.996 5.313 1.483.292 2.996-3.638 7.34-19.063.351-1.247-.081-1.75-1.504-1.75-1.575 0-2.338 1.212-3.618 5.75-.892 3.162-1.754 6.2-1.916 6.75-.301 1.025-3.604-9.426-3.604-11.404 0-.603-.833-1.096-1.852-1.096-1.437 0-2.264 1.511-3.696 6.75l-1.844 6.75-1.948-6.75c-1.556-5.394-2.344-6.75-3.92-6.75-1.397 0-1.832.511-1.488 1.75M66 245.5V256h7c6.333 0 7-.19 7-2 0-1.733-.667-2-5-2-4.667 0-5-.167-5-2.5 0-2.302.362-2.5 4.573-2.5 3.816 0 4.519-.29 4.242-1.75-.243-1.282-1.484-1.833-4.635-2.061-3.781-.272-4.265-.576-3.992-2.5.264-1.849 1.051-2.236 5.062-2.494 3.335-.214 4.75-.735 4.75-1.75 0-1.122-1.562-1.445-7-1.445h-7zm18.215-.25.285 10.25 6.21-.094c3.433-.053 6.899-.666 7.75-1.373 2.063-1.712 1.974-6.691-.141-7.874-1.574-.881-1.574-1.047 0-2.621 2.214-2.214 2.122-4.097-.319-6.538-1.558-1.558-3.333-2-8.035-2H83.93zm27.44-8.421C108.039 240.824 111 247 116.531 247c1.148 0 2.96.675 4.028 1.5 1.921 1.485 1.921 1.515 0 3-1.068.825-2.498 1.5-3.179 1.5s-1.912-.675-2.737-1.5c-1.599-1.599-5.643-2.068-5.643-.655 0 1.811 4.027 4.349 7.672 4.835 2.938.392 4.468.006 6.578-1.657 5.114-4.031 2.81-9.211-4.8-10.792-2.973-.618-3.95-1.304-3.95-2.776 0-2.497 4.623-3.217 6.458-1.006 1.429 1.722 5.042 2.117 5.042.551 0-.55-.9-1.9-2-3-2.662-2.662-9.999-2.763-12.345-.171M128 237c0 1.556.667 2 3 2h3v8.5c0 7.833.157 8.5 2 8.5s2-.667 2-8.5V239h3c2.333 0 3-.444 3-2 0-1.833-.667-2-8-2s-8 .167-8 2m19.144 6.505c.315 7.677.627 8.891 2.717 10.583 3.366 2.726 8.662 2.48 11.684-.543 2.2-2.199 2.455-3.291 2.455-10.5 0-7.378-.166-8.045-2-8.045-1.804 0-2 .667-2 6.809 0 7.798-1.389 10.554-5.056 10.036-2.31-.326-2.472-.785-2.944-8.345-.467-7.472-.655-8.022-2.856-8.333-2.342-.332-2.354-.282-2 8.338M168 245.52v10.76l5.673-.586c7.793-.804 10.827-3.799 10.827-10.689 0-6.931-2.451-9.229-10.461-9.809L168 234.76zm21 .053c0 9.531.173 10.541 1.75 10.239 1.508-.289 1.789-1.752 2.035-10.574.271-9.723.183-10.238-1.75-10.238-1.918 0-2.035.606-2.035 10.573m11.656-9.44c-1.014.589-2.492 2.624-3.285 4.522-4.466 10.689 6.866 20.262 14.706 12.422 2.47-2.47 2.923-3.717 2.923-8.046 0-4.105-.487-5.609-2.455-7.576-2.665-2.666-8.467-3.311-11.889-1.322M88.362 239.5c-1.069 2.784.288 4.205 3.558 3.725 3.695-.542 4.694-1.78 3.044-3.769-1.579-1.902-5.866-1.874-6.602.044M172 245c0 6.408.175 7 2.066 7 4.278 0 5.934-1.808 5.934-6.478 0-4.645-2.38-7.522-6.223-7.522-1.534 0-1.777.959-1.777 7m30.655-5.171c-1.863 2.058-2.182 7.319-.62 10.237.662 1.236 2.092 1.934 3.965 1.934 3.314 0 5-2.263 5-6.712 0-6.03-4.917-9.247-8.345-5.459M21.25 241.655c-8.151 3.335-8.192 5.102-.189 8.205 3.334 1.293 6.315 2.098 6.624 1.789 1.244-1.245-.729-3.5-3.617-4.134-4.03-.885-3.882-2.091.432-3.515 2.386-.787 3.5-1.767 3.5-3.078 0-1.057-.113-1.9-.25-1.873s-3.062 1.199-6.5 2.606m203.359-1.931c-1.355 1.355-.405 2.445 3.641 4.177l4.25 1.819-3.928 1.89c-4.906 2.361-6.215 5.015-1.952 3.958 8.49-2.106 13.936-6.329 10.13-7.855-9.498-3.809-11.623-4.507-12.141-3.989M88 249.5c0 2.417.292 2.597 3.75 2.31 2.98-.246 3.75-.721 3.75-2.31s-.77-2.064-3.75-2.31c-3.458-.287-3.75-.107-3.75 2.31"/><path fill="#f9cf53" fill-opacity=".64" fill-rule="evenodd" d="M131.704 3.25c-3.22 3.019-4.987 6.457-3.721 7.24 1.375.849.732 4.062-1.25 6.252-.911 1.007-2.38 3.563-3.264 5.679C121.525 27.072 120.244 40 121.726 40c.558 0 1.321-3.1 1.694-6.889.381-3.865 1.645-8.803 2.88-11.25 2.019-4.002 2.516-4.362 6.037-4.375 2.11-.008 4.012.269 4.226.616.214.346 1.552.407 2.974.136 4.474-.856 7.921-8.637 5.083-11.475-.839-.839-1.273-1.777-.964-2.085.632-.632-6.181-3.678-8.227-3.678-.729 0-2.406 1.012-3.725 2.25m65.41 6.601-4.386 3.792 3.537 1.678C201.594 17.85 202 17.579 202 11.5c0-3.025-.113-5.487-.25-5.47-.137.016-2.224 1.736-4.636 3.821m-118.81 5.4c-1.604 1.139-3.398 3.613-3.988 5.498-1 3.194-.847 3.653 2.247 6.747 2.977 2.978 3.682 3.238 6.835 2.527 1.933-.436 4.241-1.519 5.13-2.408 2.081-2.081 3.279-2.03 7.106.304 3.733 2.276 7.719 7.288 9.848 12.385.85 2.033 1.989 3.696 2.531 3.696 1.538 0 1.187-1.672-1.435-6.847-2.74-5.406-9.278-11.789-13.046-12.734-1.385-.348-2.27-1.034-1.966-1.526.304-.491.027-.893-.614-.893-.673 0-.898-.698-.532-1.651.773-2.017-1.795-4.587-6.076-6.079-2.651-.924-3.568-.775-6.04.981M127.5 52c-.731 1.183.248 1.183 3 0 1.928-.829 1.921-.862-.191-.93-1.205-.038-2.469.38-2.809.93m-19 7c-.34.55-.168 1 .382 1s1.278-.45 1.618-1 .168-1-.382-1-1.278.45-1.618 1m23.035 4.943c-.359.581-.176 1.057.406 1.057 1.485 0 1.327 2.733-.191 3.3-.848.317-.688.7.5 1.191 2.934 1.212 4.917-.192 4.567-3.235-.222-1.934-.96-2.848-2.473-3.063-1.185-.169-2.449.168-2.809.75M111.5 68c-.34.55-.141 1 .441 1s1.059.702 1.059 1.559c0 .954-.485 1.287-1.25.859-.687-.385-.497.1.422 1.078 2.932 3.115 7.544-.723 4.817-4.009-1.407-1.696-4.569-1.976-5.489-.487m-48.628 4.75c-1.243 1.586-1.208 1.621.378.378 2.173-1.705 4.375-.193 6.364 4.372.733 1.68 1.325 2.264 1.347 1.327C71.002 77.077 66.4 71 65.034 71c-.434 0-1.407.787-2.162 1.75m-.661 3.855c-1.072 1.159-.945 1.395.75 1.395 1.121 0 2.039-.423 2.039-.941 0-1.656-1.459-1.893-2.789-.454m-6.961.084c.962.252 2.538.252 3.5 0 .962-.251.175-.457-1.75-.457s-2.712.206-1.75.457m-2.057 3.373c-1.68 2.691-.431 4.956 2.664 4.832l2.643-.107-2.75-1.086c-3.436-1.358-3.517-2.473-.211-2.885 2.352-.293 2.402-.401.677-1.464-1.516-.935-2.078-.803-3.023.71M70 83.378c0 2.429-3.16 4.106-8.904 4.725l-5.596.603 5.059.147c3.106.09 5.808-.42 7-1.321 1.067-.808 2.446-1.483 3.063-1.5 1.863-.053 16.187 9.709 21.398 14.584 4.522 4.229 7.604 5.175 6.368 1.953-.288-.752-.02-1.678.596-2.059.673-.416-.708-1.852-3.462-3.598-2.521-1.599-4.849-3.602-5.176-4.452-.644-1.679-5.751-4.609-14.266-8.184-6.394-2.685-6.08-2.639-6.08-.898M53 87c0 .55.477 1 1.059 1s.781-.45.441-1-.816-1-1.059-1-.441.45-.441 1m70.269 1.693c.973.254 2.323.237 3-.037s-.119-.481-1.769-.461-2.204.244-1.231.498M144.5 96c-.34.55-.141 1 .441 1S146 96.55 146 96s-.198-1-.441-1-.719.45-1.059 1m23.064 3.707c-.542 1.425-.428 1.54.56.56.684-.679.991-1.486.683-1.793-.308-.308-.867.247-1.243 1.233M134 101c0 .55.45 1 1 1s1-.45 1-1-.45-1-1-1-1 .45-1 1m-6.436 2.293c.376.986.935 1.541 1.243 1.233s.001-1.114-.683-1.793c-.988-.98-1.102-.865-.56.56M124 104c0 .55.477 1 1.059 1s.781-.45.441-1-.816-1-1.059-1-.441.45-.441 1m-22 1c0 .55.477 1 1.059 1s.781-.45.441-1-.816-1-1.059-1-.441.45-.441 1m11.5 1c-.34.55-.141 1 .441 1s1.059-.45 1.059-1-.198-1-.441-1-.719.45-1.059 1m7.515-.289c.029 1.497 1.736 3.5 2.255 2.646.286-.471-.108-1.437-.875-2.146-.767-.71-1.388-.935-1.38-.5m-4.936 2.872c.048 1.165.285 1.402.604.605.289-.722.253-1.585-.079-1.917s-.568.258-.525 1.312m50.994 2.052c-2.594 3.297-2.65 5.365-.146 5.365 2.065 0 6.073-4.379 6.073-6.635 0-2.312-3.74-1.511-5.927 1.27m-73.996 2.442c-1.042 2.328-1.681 4.79-1.42 5.471 1.185 3.088 20.496 9.436 33.372 10.969l5.529.658 2.221-4.447c1.222-2.446 2.221-4.735 2.221-5.088s-1.525-.64-3.39-.64c-9.154 0-28.059-5.145-33.874-9.22l-2.764-1.936zm66.581 12.372q-.56 1.452.893.893c1.582-.607 1.994-2.342.556-2.342-.491 0-1.143.652-1.449 1.449m-68.189 8.301c1.333 5.342 5.146 8.996 11.231 10.765 6.906 2.008 19.561 4.485 22.911 4.485 2.368 0 2.39-.069.796-2.502-.902-1.376-1.421-3.338-1.153-4.361.426-1.631-.815-2.135-10.134-4.113-5.841-1.24-13.486-3.328-16.989-4.639S91.542 131 91.273 131c-.27 0-.181 1.238.196 2.75m62.921 7.015c-1.536 1.016-4.664 7.294-3.977 7.982.664.664 7.587-6.47 7.587-7.818 0-1.105-2.048-1.197-3.61-.164M111 154.529c0 1.728 5.311 11.46 6.237 11.43.695-.023 3.233-1.823 5.642-4l4.378-3.959-2.878-.033c-1.584-.018-5.241-.848-8.129-1.846s-5.25-1.714-5.25-1.592m-73.561 81.648c.237.728 1.6 5.261 3.028 10.073 1.61 5.425 3.113 8.75 3.954 8.75.823 0 2.049-2.558 3.116-6.5 1.578-5.829 3.463-8.649 3.463-5.182C51 246.767 54.199 255 55.539 255c.803 0 1.461-.152 1.461-.337s1.313-4.712 2.918-10.058c2.509-8.356 2.688-9.676 1.277-9.404-1.048.202-2.315 2.572-3.505 6.557-1.681 5.631-3.69 8.311-3.69 4.924 0-3.131-3.21-11.779-4.244-11.434-.621.207-1.845 2.963-2.721 6.125s-2.029 5.691-2.564 5.62c-.534-.071-1.647-2.68-2.473-5.798-1.015-3.833-2.066-5.777-3.246-6.004-1.09-.21-1.583.16-1.313.986m29.121.527c-.36.937-.571 5.437-.471 10l.183 8.296h6.864c4.824 0 6.864-.372 6.866-1.25.001-.825-1.615-1.25-4.75-1.25-4.597 0-4.752-.096-4.752-2.955 0-2.762.246-2.951 3.75-2.88 2.546.051 3.75-.364 3.75-1.295 0-.932-1.279-1.37-4-1.37-3.778 0-4-.167-4-3 0-2.933.111-3 5-3 3.778 0 5-.367 5-1.5 0-2.338-12.538-2.147-13.44.204M85 245v10h5.845c4.393 0 6.256-.454 7.5-1.829 2.264-2.502 2.075-4.763-.551-6.603-2.098-1.469-2.118-1.611-.406-2.863 2.48-1.813 1.725-5.846-1.388-7.415-1.375-.693-4.412-1.267-6.75-1.275L85 235zm28.28-8.98c-1.221.491-2.497 1.996-2.835 3.344-.688 2.74.977 6.633 2.84 6.642.668.003 2.903.474 4.965 1.047 2.603.722 3.75 1.606 3.75 2.887 0 3.122-5.77 4.247-8 1.56-1.592-1.919-4-1.94-4-.035 0 2.069 3.21 3.535 7.743 3.535 5.418 0 7.492-1.77 7.086-6.044-.303-3.183-.724-3.581-5.329-5.038-3.713-1.174-5-2.075-5-3.5 0-2.348 5.334-3.31 6.954-1.254 1.483 1.881 3.546 2.11 3.546.393 0-3.526-6.714-5.551-11.72-3.537m14.72.417c0 .89 1.237 1.556 3.25 1.75l3.25.313.29 8.25c.227 6.432.612 8.25 1.75 8.25 1.165 0 1.46-1.716 1.46-8.5V238h3q3 0 3-1.5c0-1.208-1.556-1.5-8-1.5-6.288 0-8 .308-8 1.437m20 6.908c0 9.836 1.21 11.655 7.757 11.655 6.216 0 7.243-1.641 7.243-11.571 0-6.826-.285-8.429-1.5-8.429-1.199 0-1.5 1.492-1.5 7.429 0 7.54-1.29 10.571-4.5 10.571s-4.5-3.031-4.5-10.571c0-5.937-.301-7.429-1.5-7.429-1.214 0-1.5 1.594-1.5 8.345m20 1.517V255h5.545c7.512 0 10.455-2.753 10.455-9.78 0-6.506-2.516-8.911-10.277-9.823l-5.723-.672zm21 .138c0 8.222.267 10 1.5 10s1.5-1.778 1.5-10-.267-10-1.5-10-1.5 1.778-1.5 10m10.923-7.077c-2.353 2.353-2.923 3.789-2.923 7.365 0 6.512 2.824 9.712 8.573 9.712 4.912 0 7.93-2.171 9.012-6.481 2.574-10.258-7.628-17.63-14.662-10.596M88 240.94c0 2.675.346 3.058 2.75 3.045 3.685-.021 5.523-1.323 5.09-3.605-.26-1.368-1.375-1.964-4.098-2.19-3.575-.297-3.742-.174-3.742 2.75m84 4.56c0 6.889.167 7.5 2.045 7.5 3.102 0 6.955-4.407 6.955-7.955 0-3.702-3.085-7.045-6.5-7.045-2.444 0-2.5.167-2.5 7.5m30.2-6.3c-1.774 1.774-1.514 10.343.371 12.229 3.658 3.657 8.429.36 8.429-5.823 0-5.225-1.514-7.606-4.835-7.606-1.521 0-3.305.54-3.965 1.2m-181.974 3.15c-3.263 1.33-5.17 2.684-5 3.55.151.77 3.087 2.452 6.524 3.737 5.042 1.884 6.25 2.056 6.25.89 0-.821-1.73-1.965-4-2.645-2.2-.659-4-1.509-4-1.889 0-.379 1.8-1.397 4-2.261s4-2.057 4-2.652c0-1.495-1.652-1.226-7.774 1.27M225 241.342c0 .738 1.8 1.881 4 2.54s4 1.559 4 2-1.8 1.341-4 2c-2.225.666-4 1.828-4 2.618 0 1.143 1.166.999 6-.74 7.816-2.812 7.921-4.747.411-7.621-6.602-2.527-6.411-2.503-6.411-.797M88 249.5c0 3.035.321 3.5 2.418 3.5 3.892 0 5.582-1.057 5.582-3.49q-.001-2.275-2.25-2.88c-4.814-1.29-5.75-.823-5.75 2.87"/></svg>