<svg xmlns="http://www.w3.org/2000/svg" width="256" height="256"><path fill="#1976D2" fill-opacity=".016" fill-rule="evenodd" d="M0 128.004v128.004l128.25-.254 128.25-.254.254-127.75L257.008 0H0zm.485.496c0 70.4.119 99.053.265 63.672s.146-92.98 0-128S.485 58.1.485 128.5"/><path fill="#1976D2" fill-opacity=".326" fill-rule="evenodd" d="M220.5 61.872c-7.741 2.047-13.986 7.561-17.699 15.628-2.066 4.489-2.301 6.483-2.301 19.5 0 13.87.122 14.749 2.811 20.224C208.467 127.725 217.39 133 229.997 133c8.446 0 15.485-2.1 20.253-6.044l3.75-3.102V97h-26v8h16v7.977c0 7.405-.179 8.094-2.5 9.615-3.285 2.152-14.183 2.998-18.839 1.461-4.606-1.52-10.065-7.853-11.65-13.515-.77-2.748-1.089-8.785-.857-16.208.322-10.344.681-12.389 2.857-16.279 3.305-5.907 7.702-8.386 14.867-8.379 8.623.008 13.901 3.616 15.685 10.724.595 2.371 1.101 2.604 5.654 2.604 4.81 0 4.976-.093 4.383-2.456-1.86-7.413-6.497-13.431-12.844-16.669-4.327-2.207-15.357-3.298-20.256-2.003M7 96.945V132h43.121l-.311-3.75-.31-3.75-16.236-.275-16.235-.274-.265-30.726L16.5 62.5l-4.75-.305L7 61.89zm50.569-33.372c-1.96 1.961-2.255 17.341-.369 19.227 1.613 1.613 16.987 1.613 18.6 0 2.822-2.822.16-6.936-4.05-6.259-3.288.53-1.756-1.318 3-3.617 6.601-3.19 18.76-3.324 25.372-.278 6.632 3.054 12.398 8.673 15.585 15.188 3.69 7.541 3.832 18.038.352 25.936-8.532 19.362-35.105 24.321-50.029 9.337-5.445-5.467-7.811-10.12-9.064-17.818-1.138-6.987-2.784-8.992-5.981-7.281-2.075 1.111-2.199 1.675-1.617 7.348 1.321 12.858 10.051 24.852 22.435 30.82 6.016 2.899 7.622 3.23 15.795 3.253 8.522.024 9.578-.212 16.685-3.724 8.684-4.292 14.233-9.902 18.376-18.581 3.591-7.52 4.382-19.464 1.805-27.257-7.729-23.374-32.803-33.756-54.564-22.591-3.823 1.962-6.887 3.04-6.807 2.395.682-5.543-2.531-9.09-5.524-6.098M132 97v35h9.967l.266-25.942.267-25.942 16.866 25.942L176.232 132H186V61.89l-4.75.305-4.75.305v26.25c0 14.438-.068 26.251-.152 26.25-.084 0-7.899-11.925-17.367-26.5L141.767 62H132zM85.724 77.134c-1.411.79-1.724 2.438-1.724 9.087 0 6.177-.399 8.563-1.667 9.963-2.198 2.429-2.121 7.288.155 9.803 2.172 2.4 7.699 2.698 9.512.513.782-.942 2.985-1.5 5.922-1.5 4.942 0 7.078-1.257 7.078-4.165 0-2.348-2.998-3.835-7.734-3.835C91.708 97 91 95.795 91 86.335c0-6.893-.295-8.422-1.776-9.215-1.126-.603-2.406-.598-3.5.014M84 179.5c0 14.833.086 15.5 2 15.5 1.1 0 2-.54 2-1.2 0-.933.267-.933 1.2 0 2.1 2.1 7.666 1.425 10.345-1.255 2.072-2.071 2.455-3.409 2.455-8.576 0-5.434-.329-6.452-2.923-9.046-3.054-3.053-5.876-3.636-9.143-1.888-1.793.96-1.934.668-1.934-4 0-4.368-.265-5.035-2-5.035-1.914 0-2 .667-2 15.5m102-10.521c0 4.907-.035 4.962-2.426 3.873-8.779-4-15.822 10.946-8.987 19.069 2.47 2.936 2.89 3.063 9.25 2.798l6.663-.278.276-15.221.276-15.22h-2.526c-2.363 0-2.526.321-2.526 4.979m10-2.038c0 2.693 1.892 3.596 3.714 1.773 1.823-1.822.92-3.714-1.773-3.714-1.255 0-1.941.686-1.941 1.941m-57.592 1.437c-.322.84-.275 2.028.104 2.641.4.647-.194 1.346-1.411 1.665-2.536.663-2.816 3.314-.351 3.321 1.517.004 1.75 1.047 1.753 7.849.003 8.865 1.153 11.146 5.619 11.146 2.211 0 2.878-.463 2.878-2q0-2-2-2c-1.822 0-2-.667-2-7.5s.178-7.5 2-7.5c1.111 0 2-.667 2-1.5 0-.825-.87-1.5-1.934-1.5-1.364 0-2.026-.807-2.25-2.741-.351-3.047-3.453-4.37-4.408-1.881m-71.152 4.651c-5.363 2.156-7.999 11.997-4.552 16.998 2.686 3.897 4.499 4.907 8.872 4.941 3.069.024 4.649-.579 6.399-2.442 2.097-2.231 2.156-2.538.608-3.133-.945-.362-2.227-.149-2.85.474-1.899 1.899-7.53 1.38-8.698-.801C65.109 185.467 65.795 185 73 185h7v-3.577c0-2.62-.782-4.359-2.923-6.5-2.982-2.982-5.775-3.521-9.821-1.894m52.761.257c-1.366.691-2.911 2.471-3.433 3.955-1.214 3.452 1.153 6.3 6.591 7.929 6.785 2.033 7.689 5.83 1.388 5.83-2.299 0-3.763-.669-4.763-2.175-1.834-2.762-4.896-1.906-4.098 1.144 1.97 7.532 17.298 6.26 17.298-1.435 0-2.976-3.816-6.089-8.553-6.978-2.949-.553-3.517-1.052-3.259-2.863.437-3.071 5.253-3.606 6.78-.753 1.852 3.46 5.798 2.22 4.414-1.387-.727-1.894-5.474-4.56-8.082-4.538-.99.008-2.918.58-4.283 1.271m90.093.11c-3.414 1.892-5.034 5.381-5.075 10.931-.102 13.969 18.215 14.435 19.634.499.924-9.077-7.24-15.487-14.559-11.43m-202.86 3.11c-9.66 4.498-9.557 5.877.795 10.7 7.788 3.629 7.955 3.66 7.955 1.476 0-1.758-1.217-2.763-5.733-4.734l-5.732-2.503 5.482-2.078c4.008-1.519 5.569-2.654 5.803-4.222.407-2.732.125-2.687-8.57 1.361m22.758-2.756c.004.412 1.302 5.25 2.885 10.75 2.32 8.063 3.238 10 4.742 10 1.437 0 2.424-1.719 4.303-7.5l2.439-7.5 2.421 7.75c3.389 10.85 5.015 10.565 8.575-1.5l3.272-11.082c.432-1.462.069-1.765-1.802-1.5-2.248.319-3.098 2.336-5.825 13.832-.065.275-1.125-2.65-2.355-6.5-1.731-5.42-2.704-7.068-4.311-7.301-1.77-.257-2.35.661-3.951 6.25-1.705 5.954-3.401 8.563-3.401 5.233 0-.726-.692-3.651-1.539-6.5-1.175-3.958-2.002-5.182-3.5-5.182-1.078 0-1.958.338-1.953.75m120.143 8.146c.465 11.859 1.523 13.104 10.982 12.929l6.867-.126V183.78c0-10.752-.035-10.914-2.25-10.6-2.085.297-2.287.944-2.75 8.82l-.5 8.5h-7l-.289-8.75c-.285-8.647-.319-8.75-2.849-8.75h-2.561zM196 184c0 10.333.121 11 2 11s2-.667 2-11-.121-11-2-11-2 .667-2 11m43-9.122c0 1.38 1.593 2.474 6 4.122 3.3 1.234 6 2.39 6 2.568 0 .179-2.7 1.309-6 2.512-4.977 1.815-6 2.583-6 4.505 0 2.303.046 2.295 8.25-1.466 4.827-2.213 8.384-4.471 8.572-5.443.236-1.216-1.738-2.6-7.375-5.168-8.903-4.058-9.447-4.152-9.447-1.63m-171.305 2.907C65.136 180.612 65.55 181 71.122 181c5.085 0 5.111-.016 3.635-2.25-1.926-2.916-4.926-3.326-7.062-.965m22.055-.705c-1.315.766-1.75 2.324-1.75 6.27 0 5.924 1.165 7.65 5.165 7.65 3.352 0 4.835-2.386 4.835-7.779 0-5.833-3.854-8.702-8.25-6.141m89.04-.022c-3.572 2.082-3.056 12.135.697 13.575.835.321 2.641.301 4.015-.044 2.304-.578 2.498-1.077 2.498-6.408 0-7.526-2.419-9.916-7.21-7.123m31.767 1.165c-3.532 5.042-.829 12.777 4.465 12.777 3.505 0 4.978-2.301 4.978-7.779 0-6.541-6.101-9.77-9.443-4.998"/><path fill="#1976D2" fill-opacity=".32" fill-rule="evenodd" d="M217.748 63.427c-12.351 4.407-18.7 18.104-17.417 37.573.771 11.695 2.915 17.27 9.075 23.596 4.061 4.171 6.299 5.579 11.036 6.945 10.091 2.909 23.85.291 30.296-5.764 2.12-1.993 2.262-2.925 2.262-14.893V98.118l-12.002-.309-12.002-.309.002 3.75L229 105h16.081l-.291 8.155-.29 8.155-4 2.094c-5.149 2.694-15.494 2.835-20.27.276C212.883 119.743 209 110.518 209 97c0-17.315 5.675-26.686 16.809-27.756 8.704-.836 15.633 3.135 17.894 10.256.839 2.642 1.467 3.037 5.266 3.314l4.314.315-.617-3.799c-.946-5.832-5.408-11.439-11.602-14.58-4.438-2.251-6.706-2.742-12.493-2.706-3.889.024-8.759.646-10.823 1.383M7 97.5V132h42v-7H16V63H7zm51.155-33.596c-.871.539-1.151 3.405-.946 9.681L57.5 82.5l9.124.286c8.408.263 9.165.129 9.647-1.713.67-2.564-.895-3.824-5.275-4.248l-3.496-.339 3.5-2.264c15.554-10.062 36.448-4.02 44.953 13 2.534 5.07 3.048 7.292 3.052 13.188.007 10.014-2.316 15.874-9.005 22.716-12.359 12.641-29.932 13.183-43.757 1.35C61.326 120.267 56 110.157 56 105.031c0-4.623-1.897-7.391-4.406-6.429-1.618.621-1.781 1.488-1.281 6.805 2.586 27.527 34.219 42.653 57.696 27.587 6.037-3.874 10.126-8.421 13.743-15.281 2.541-4.82 2.747-6.081 2.729-16.713-.018-10.626-.232-11.906-2.812-16.838-10.756-20.565-36.137-26.804-55.919-13.747L63 72.23v-3.58c0-3.779-2.48-6.208-4.845-4.746M133 97.5V132h8l.118-25.25c.066-13.888.046-25.812-.043-26.5-.334-2.572 1.52-1.095 4.395 3.502 1.633 2.611 9.385 14.535 17.225 26.498L176.951 132H186V63h-8.967l-.267 26.668-.266 26.667-17.336-26.667L141.829 63H133zM86.25 77.667c-.854.341-1.25 3.035-1.25 8.509 0 6.494-.378 8.489-2 10.551-1.1 1.399-2 3.537-2 4.753 0 4.839 7.305 7.364 11.175 3.862 1.123-1.016 3.672-1.694 6.579-1.75 4.371-.085 4.746-.289 4.746-2.592s-.404-2.523-5.139-2.798c-7.181-.417-8.207-1.873-8.567-12.152-.284-8.091-.861-9.457-3.544-8.383M84 178.96v14.959l2.75-.102c1.513-.056 4.139.229 5.837.633 8.183 1.948 13.031-12.832 6.388-19.475-2.216-2.216-7.885-2.665-9.775-.775-.933.933-1.2-.067-1.2-4.5 0-5.033-.234-5.7-2-5.7-1.911 0-2 .667-2 14.96m103-10.083v4.877l-4.542-.512c-5.794-.653-9.079 2.045-10.004 8.218-1.284 8.564 4.273 15.122 10.785 12.728 1.507-.553 3.645-.77 4.75-.481 1.949.51 2.011.06 2.011-14.59 0-12.771-.233-15.117-1.5-15.117-1.128 0-1.5 1.209-1.5 4.877m9.688-3.231c-1.416 1.415-.615 3.354 1.385 3.354 1.398 0 1.968-.543 1.75-1.667-.357-1.841-2.064-2.759-3.135-1.687M139 170.5c0 1.833-.533 2.5-2 2.5-1.111 0-2 .667-2 1.5s.889 1.5 2 1.5c1.832 0 2 .667 2 7.929 0 8.597 1.391 11.453 5.296 10.874 2.778-.411 3.264-2.423.745-3.082-1.825-.477-2.041-1.325-2.041-8.011 0-6.636.225-7.536 2-8 1.1-.287 2-1.015 2-1.616s-.9-1.094-2-1.094c-1.467 0-2-.667-2-2.5s-.533-2.5-2-2.5-2 .667-2 2.5M7.761 176.843c-4.257 2.011-7.744 4.156-7.75 4.766-.011 1.085 15.125 8.57 15.863 7.845 1.238-1.219-1.4-3.308-6.266-4.962C6.523 183.444 4 182.303 4 181.957s2.7-1.795 6-3.218c3.698-1.596 6-3.194 6-4.164 0-.866-.113-1.533-.25-1.482s-3.733 1.738-7.989 3.75m22.655-2.093C31.801 179.154 36 193.386 36 193.676c0 .178.788.32 1.75.315 1.307-.007 2.356-1.968 4.145-7.75l2.395-7.741 2.558 7.75c3.528 10.688 5.009 10.417 8.466-1.551C58.417 173.954 58.517 173 56.539 173c-1.39 0-2.641 3.262-4.154 10.825-.354 1.769-.97 3.418-1.369 3.665s-1.711-2.942-2.915-7.086c-2.792-9.611-4.673-9.713-7.386-.401-1.04 3.573-2.218 6.841-2.617 7.261s-1.523-2.617-2.497-6.75C34.132 174.285 33.49 173 31.847 173c-1.43 0-1.829.487-1.431 1.75m35.497-.468c-4.606 3.537-5.41 12.866-1.5 17.412 1.987 2.31 3.218 2.806 6.965 2.806 4.726 0 8.477-2.308 7.175-4.415-.48-.775-1.33-.655-2.841.404-3.067 2.148-5.436 1.878-8.257-.944-3.88-3.879-3.14-4.545 5.045-4.545 5.336 0 7.498-.361 7.494-1.25-.014-3.28-2.279-8.832-3.972-9.738-2.564-1.372-8.165-1.223-10.109.27m52.742.547c-1.955 2.159-2.176 6.499-.405 7.951.688.563 3.186 1.542 5.551 2.175 4.659 1.245 6.138 3.208 4.188 5.558-1.738 2.095-5.353 1.847-7.489-.513-2.071-2.288-4.5-2.642-4.5-.655 0 5.06 11.525 7.195 15.088 2.794 3.503-4.325 1.834-7.296-5.588-9.948-3.683-1.315-5-2.3-5-3.738 0-2.54 5.561-3.289 7.458-1.004 1.582 1.907 4.042 2.032 4.042.206 0-4.333-10.054-6.463-13.345-2.826m32.345 6.98c0 10.393 1.074 12.578 6.11 12.43 1.865-.055 5.078-.145 7.14-.2l3.75-.1V183.47c0-9.803-.127-10.47-2-10.47-1.833 0-2 .667-2 7.977 0 7.363-.189 8.101-2.451 9.583-3.006 1.969-6.128 1.139-6.927-1.843-.327-1.219-.601-5.254-.608-8.967-.011-5.327-.33-6.75-1.514-6.75-1.22 0-1.5 1.645-1.5 8.809m45 1.691c0 9.833.127 10.5 2 10.5s2-.667 2-10.5-.127-10.5-2-10.5-2 .667-2 10.5m12.092-8.098c-2.788 2.968-3.787 9.507-2.08 13.626 2.627 6.342 11.732 7.655 15.945 2.3 3.504-4.455 2.49-13.698-1.87-17.046-2.844-2.184-9.473-1.565-11.995 1.12m31.081-.772c.193.988 2.631 2.533 5.953 3.772 3.094 1.154 5.713 2.515 5.821 3.025s-2.537 2.02-5.876 3.356c-3.402 1.361-6.071 3.047-6.071 3.836 0 1.173.627 1.137 3.75-.212 2.063-.891 5.887-2.532 8.5-3.647 5.375-2.293 6.025-4.101 2-5.563-1.512-.55-5.372-2.179-8.577-3.62-4.955-2.228-5.779-2.369-5.5-.947M67.2 177.2c-.66.66-1.2 2.01-1.2 3 0 1.493.852 1.8 5 1.8 5.157 0 5.792-.652 3.965-4.066-1.173-2.192-5.864-2.635-7.765-.734m22 0c-.66.66-1.2 3.82-1.2 7.021 0 5.214.257 5.939 2.459 6.942 1.969.898 2.965.789 5-.544 2.104-1.379 2.541-2.446 2.541-6.208 0-2.498-.466-5.413-1.035-6.477-1.173-2.192-5.864-2.635-7.765-.734m88.357 1.023c-2.232 3.185-2 9.334.443 11.777 2.407 2.407 3.84 2.501 6.777.443 1.78-1.246 2.223-2.527 2.223-6.428 0-5.458-1.759-8.015-5.515-8.015-1.317 0-3.064.988-3.928 2.223m33.098-.394c-2.38 2.63-2.181 9.645.345 12.171 2.575 2.575 5.202 2.539 7.595-.105 2.273-2.512 2.589-9.764.533-12.241-1.825-2.198-6.411-2.104-8.473.175"/><path fill="#1976D2" fill-opacity=".417" fill-rule="evenodd" d="M84.667 164.667c-.367.366-.667 7.116-.667 15 0 11.699.26 14.333 1.417 14.333.779 0 1.623-.562 1.875-1.25.366-1 .723-1 1.783 0 1.588 1.498 6.336 1.636 8.911.258 4.603-2.464 4.92-13.869.501-18.021-2.363-2.219-5.389-2.381-9.737-.521-1.548.661-1.75.099-1.75-4.859 0-5.191-.668-6.606-2.333-4.94M187 169.607c0 4.958-.202 5.52-1.75 4.859-4.477-1.915-7.134-1.673-9.691.884-2.115 2.115-2.559 3.498-2.559 7.97 0 7.192 2.571 10.68 7.873 10.68 2.05 0 4.267-.54 4.927-1.2.933-.933 1.2-.933 1.2 0 0 .66.675 1.2 1.5 1.2 1.267 0 1.5-2.333 1.5-15s-.233-15-1.5-15c-1.155 0-1.5 1.29-1.5 5.607m9.543-2.676c-.317.512-.118 1.213.441 1.559 1.193.737 3.016-.199 3.016-1.549 0-1.217-2.707-1.225-3.457-.01M139 170.383c0 1.617-.71 2.569-2.206 2.961-2.162.565-1.763 2.156.539 2.156.748 0 1.357 2.873 1.695 8 .608 9.199 1.169 10.5 4.531 10.5 2.962 0 3.232-1.56.397-2.301-1.872-.49-2.018-1.192-1.75-8.367.253-6.744.537-7.813 2.044-7.693.963.076 1.75-.486 1.75-1.25s-.9-1.389-2-1.389c-1.467 0-2-.667-2-2.5 0-1.556-.567-2.5-1.5-2.5-.914 0-1.5.931-1.5 2.383m-108 3.541C31 177.298 36.538 194 37.657 194c.741 0 2.266-3.201 3.568-7.491 1.251-4.119 2.575-7.494 2.942-7.5.366-.005 1.754 3.253 3.083 7.241 1.35 4.05 2.991 7.25 3.719 7.25 1.311 0 7.653-19.211 6.667-20.198-1.163-1.162-2.513 1.021-3.676 5.945-2.606 11.031-2.922 11.157-5.841 2.329-1.44-4.358-3.142-8.095-3.782-8.304-.68-.223-1.839 1.942-2.789 5.209-3.471 11.943-3.544 11.98-6.006 3.077-1.207-4.369-2.724-8.119-3.369-8.334s-1.173.1-1.173.7m34.522 1.326c-4.395 3.819-4.656 12.616-.497 16.775 2.736 2.736 9.99 2.721 12.475-.025 1.576-1.742 1.604-2 .214-2-.878 0-1.874.45-2.214 1-1.079 1.747-6.415 1.085-8.561-1.061-3.756-3.756-2.227-5.404 5.321-5.735l6.74-.295v-3c0-6.756-8.236-10.214-13.478-5.659m53.701-.693c-2.238 1.567-2.875 4.867-1.393 7.203.44.693 2.751 1.825 5.136 2.515 4.697 1.36 6.715 3.507 5.725 6.089-.942 2.453-7.326 2.193-8.923-.364-1.301-2.083-3.768-2.738-3.768-1 0 2.557 4.118 5 8.429 5 4.955 0 7.571-1.871 7.571-5.416 0-2.918-2.418-4.93-7.75-6.452-4.919-1.403-5.834-4.453-1.876-6.256 2.501-1.14 6.626.205 6.626 2.159 0 .531.675.965 1.5.965 2.078 0 1.874-1.626-.5-4-2.414-2.414-7.656-2.63-10.777-.443m31.777 6.72c0 10.215 1.352 12.723 6.857 12.723 2.059 0 4.232-.489 4.83-1.087.783-.783 1.275-.783 1.759 0 1.819 2.942 2.554.208 2.554-9.496 0-8.02-.303-10.484-1.25-10.171-.812.268-1.425 3.359-1.75 8.813-.483 8.12-.594 8.434-3.303 9.383-5.007 1.753-6.158.015-6.486-9.798-.227-6.783-.603-8.644-1.75-8.644-1.164 0-1.461 1.684-1.461 8.277m46 2.14c0 8.848.252 10.583 1.535 10.583 1.298 0 1.491-1.57 1.25-10.169-.197-7.034-.67-10.296-1.535-10.583-.947-.314-1.25 2.148-1.25 10.169m13.206-9.369c-3.015 1.21-5.545 7.329-4.761 11.512.334 1.781 1.528 4.408 2.654 5.839 1.653 2.102 2.896 2.601 6.474 2.601 7.001 0 10.366-4.744 9.083-12.804-1.042-6.543-7.03-9.725-13.45-7.148m-143.032 3.266C63.696 181.017 64.393 182 70.5 182c4.679 0 5.5-.275 5.5-1.845 0-2.157-2.998-5.155-5.154-5.155-.824 0-2.476 1.042-3.672 2.314M89 177c-2.699 2.699-2.805 10.961-.171 13.345 3.466 3.137 8.14 1.48 9.7-3.438 1.047-3.297-.409-8.709-2.791-10.378-2.897-2.029-4.339-1.928-6.738.471m89 0c-2.699 2.699-2.805 10.961-.171 13.345 4.61 4.173 9.171.633 9.171-7.117 0-4.152-.418-5.408-2.223-6.671-2.937-2.058-4.37-1.964-6.777.443m32.861-.088c-4.933 3.994-2.144 15.088 3.794 15.088 6.155 0 8.747-9.689 3.89-14.545-2.954-2.955-4.566-3.069-7.684-.543"/></svg>